<?xml version="1.0" standalone="no"?>
<!DOCTYPE svg PUBLIC "-//W3C//DTD SVG 20010904//EN"
 "http://www.w3.org/TR/2001/REC-SVG-20010904/DTD/svg10.dtd">
<svg version="1.0" xmlns="http://www.w3.org/2000/svg"
 width="512.000000pt" height="512.000000pt" viewBox="0 0 512.000000 512.000000"
 preserveAspectRatio="xMidYMid meet">

<g transform="translate(0.000000,512.000000) scale(0.100000,-0.100000)"
fill="#2a2a2a" stroke="none">
<path d="M426 5104 c-202 -49 -363 -211 -411 -415 -13 -56 -15 -317 -15 -2129
0 -2276 -4 -2123 63 -2259 43 -88 150 -195 238 -238 136 -67 -17 -63 2259 -63
2276 0 2123 -4 2259 63 88 43 195 150 238 238 67 136 63 -17 63 2259 0 2276 4
2123 -63 2259 -43 88 -150 195 -238 238 -136 67 18 63 -2264 62 -1757 -1
-2079 -3 -2129 -15z m2464 -419 c393 -59 754 -203 1134 -453 157 -103 203
-143 217 -191 27 -90 -50 -191 -145 -191 -12 0 -61 23 -107 52 -279 172 -358
218 -485 279 -768 371 -1546 286 -2326 -254 -80 -55 -95 -62 -138 -62 -79 0
-140 58 -147 142 -6 67 17 98 129 176 422 295 873 469 1338 517 117 12 403 4
530 -15z m-139 -625 c410 -42 856 -216 1196 -469 195 -144 331 -290 399 -426
59 -119 46 -213 -36 -255 -88 -45 -152 -18 -225 95 -240 372 -700 646 -1240
740 -360 62 -698 3 -1100 -194 -315 -155 -569 -355 -722 -569 -25 -34 -58 -69
-74 -77 -40 -21 -95 -19 -138 6 -56 32 -76 65 -76 129 0 50 5 62 50 125 106
150 315 344 509 474 472 317 994 467 1457 421z m22 -645 c369 -48 700 -208
979 -474 544 -517 742 -1316 465 -1879 -97 -196 -255 -334 -455 -400 -101 -32
-292 -41 -398 -19 -255 54 -454 211 -558 439 -49 106 -67 193 -77 368 -9 168
-26 251 -65 318 -99 168 -287 58 -288 -168 0 -41 3 -104 8 -140 6 -57 5 -69
-14 -98 -55 -88 -200 -92 -255 -8 -44 67 -56 306 -21 419 48 151 148 270 283
335 74 35 83 37 178 37 92 0 106 -3 168 -32 189 -90 286 -291 306 -637 13
-225 45 -310 153 -413 82 -77 171 -117 292 -133 278 -35 495 166 551 513 60
371 -68 798 -341 1133 -226 278 -528 464 -861 531 -132 26 -385 24 -520 -5
-296 -64 -554 -204 -768 -417 -267 -266 -406 -583 -422 -960 -14 -335 48 -602
188 -806 39 -57 44 -70 44 -119 0 -64 -20 -97 -76 -129 -44 -25 -99 -27 -140
-5 -59 30 -187 256 -244 429 -51 157 -68 287 -69 540 -1 253 10 343 65 528
117 394 389 753 745 983 348 225 755 320 1147 269z m-67 -636 c352 -49 676
-294 839 -634 87 -181 125 -364 125 -600 0 -168 -10 -198 -80 -232 -56 -29
-84 -29 -140 0 -69 34 -80 65 -80 228 0 229 -42 398 -141 557 -278 452 -859
523 -1221 150 -221 -227 -311 -582 -224 -881 64 -217 151 -349 464 -706 162
-185 197 -262 150 -330 -32 -47 -68 -72 -114 -78 -63 -8 -104 16 -170 98 -32
41 -112 137 -179 214 -207 241 -275 336 -350 485 -84 168 -122 309 -131 495
-28 546 308 1046 806 1199 144 45 295 56 446 35z"/>
</g>
</svg>
