<?xml version="1.0" standalone="no"?>
<!DOCTYPE svg PUBLIC "-//W3C//DTD SVG 20010904//EN"
 "http://www.w3.org/TR/2001/REC-SVG-20010904/DTD/svg10.dtd">
<svg version="1.0" xmlns="http://www.w3.org/2000/svg"
 width="512.000000pt" height="512.000000pt" viewBox="0 0 512.000000 512.000000"
 preserveAspectRatio="xMidYMid meet">

<g transform="translate(0.000000,512.000000) scale(0.100000,-0.100000)"
fill="#2a2a2a" stroke="none">
<path d="M3239 4483 c-115 -121 -183 -279 -195 -453 -15 -195 62 -415 189
-547 41 -43 73 -53 95 -31 19 19 14 63 -9 84 -34 30 -86 107 -118 170 -106
216 -69 502 89 687 50 58 61 92 38 115 -22 22 -53 13 -89 -25z" fill="#2196F3"/>
<path d="M4364 4495 c-18 -28 -24 -18 63 -129 124 -161 163 -376 102 -573 -29
-92 -58 -146 -123 -227 -31 -38 -56 -72 -56 -76 0 -19 35 -50 55 -50 58 0 195
217 231 365 23 93 22 258 -1 350 -24 100 -84 219 -149 298 -63 75 -93 86 -122
42z" fill="#2196F3"/>
<path d="M3389 4321 c-47 -50 -104 -163 -120 -238 -15 -76 -6 -202 20 -276 22
-63 100 -180 131 -197 20 -11 50 -4 62 14 15 21 8 53 -16 75 -13 13 -41 56
-62 97 -32 64 -38 86 -42 158 -6 123 36 246 108 311 25 23 26 57 2 78 -27 25
-41 21 -83 -22z" fill="#2196F3"/>
<path d="M4220 4340 c-11 -11 -20 -23 -20 -28 0 -4 22 -38 49 -75 57 -78 80
-137 88 -227 9 -109 -22 -202 -107 -316 -33 -43 -32 -67 2 -85 59 -32 176 140
200 294 22 146 -26 312 -122 415 -44 47 -61 51 -90 22z" fill="#2196F3"/>
<path d="M3549 4153 c-48 -53 -62 -85 -67 -155 -6 -86 11 -146 55 -198 35 -41
68 -51 91 -28 19 19 14 44 -18 95 -38 60 -41 135 -8 194 12 22 25 39 30 39 13
0 9 55 -4 68 -20 20 -53 14 -79 -15z" fill="#2196F3"/>
<path d="M4064 4155 c-16 -25 -16 -27 17 -73 30 -42 34 -54 34 -112 0 -58 -4
-70 -34 -112 -33 -46 -33 -48 -17 -73 24 -37 58 -33 96 13 34 41 60 116 60
172 0 56 -26 131 -60 173 -38 45 -72 49 -96 12z" fill="#2196F3"/>
<path d="M3830 4012 c-8 -3 -25 -14 -37 -25 l-23 -20 0 -355 c0 -351 0 -354
-22 -385 l-23 -32 -3 -622 -2 -623 -1656 0 c-1466 0 -1659 -2 -1691 -15 -48
-20 -71 -41 -94 -87 -18 -35 -19 -66 -19 -498 0 -494 1 -501 51 -550 13 -12
42 -31 64 -41 37 -17 70 -19 386 -19 l346 0 7 -31 c8 -42 40 -84 74 -98 20 -9
82 -11 193 -9 145 3 167 5 191 23 31 23 48 55 48 90 l0 25 940 0 940 0 0 -30
c0 -21 11 -42 34 -68 l34 -37 174 -3 c167 -3 174 -2 208 20 25 17 39 37 50 71
l15 47 335 0 c187 0 350 4 369 10 54 15 100 52 121 96 19 38 20 62 20 503 0
444 -1 463 -20 501 -11 22 -39 52 -62 67 l-42 28 -380 3 -381 3 0 618 0 619
-22 31 c-23 30 -23 33 -23 384 0 338 -1 355 -20 379 -20 26 -53 38 -80 30z
m617 -2664 l-2 -253 -1888 -3 -1888 -2 1 255 1 255 1889 0 1889 0 -2 -252z"/>
<path d="M915 1414 c-34 -37 -33 -78 4 -115 31 -31 59 -36 94 -17 33 17 46 39
47 79 0 75 -93 109 -145 53z" fill="#2196F3"/>
<path d="M1262 1433 c-17 -6 -42 -57 -42 -83 0 -33 53 -80 90 -80 71 0 109 99
57 148 -22 21 -73 28 -105 15z" fill="#2196F3"/>
<path d="M1583 1418 c-28 -31 -35 -60 -24 -91 34 -90 166 -62 163 35 -2 69
-93 106 -139 56z" fill="#2196F3"/>
<path d="M3480 1345 l0 -95 355 0 355 0 0 95 0 95 -355 0 -355 0 0 -95z"/>
</g>
</svg>
