<?xml version="1.0" standalone="no"?>
<!DOCTYPE svg PUBLIC "-//W3C//DTD SVG 20010904//EN"
 "http://www.w3.org/TR/2001/REC-SVG-20010904/DTD/svg10.dtd">
<svg version="1.0" xmlns="http://www.w3.org/2000/svg"
 width="234.000000pt" height="215.000000pt" viewBox="0 0 234.000000 215.000000"
 preserveAspectRatio="xMidYMid meet">

<g transform="translate(0.000000,215.000000) scale(0.100000,-0.100000)"
fill="#2a2a2a" stroke="none">
<path d="M954 2140 c-106 -22 -241 -115 -370 -253 -98 -106 -102 -114 -64
-122 35 -8 66 -44 80 -94 11 -43 15 -249 5 -342 -8 -84 17 -146 65 -156 22 -4
30 -11 30 -26 0 -32 39 -104 71 -131 16 -14 29 -29 29 -34 0 -17 46 -52 90
-67 60 -22 201 -30 273 -16 82 15 127 39 142 75 8 17 28 45 45 61 39 37 60 75
60 110 0 20 5 25 24 25 13 0 29 6 35 14 17 20 51 125 51 156 0 27 -27 60 -48
60 -7 0 3 21 22 48 134 187 43 493 -164 553 -27 7 -64 30 -93 57 -26 24 -67
52 -91 62 -52 23 -136 32 -192 20z"/>
<path d="M1716 989 c-72 -17 -167 -72 -227 -131 -66 -64 -68 -65 -133 -11
l-29 25 -65 -189 c-35 -103 -67 -192 -72 -196 -4 -4 -24 40 -44 98 l-37 105
25 31 c54 64 22 109 -79 109 -101 0 -133 -45 -79 -110 l27 -31 -33 -97 c-18
-53 -36 -103 -39 -109 -4 -7 -40 75 -81 182 -40 107 -77 195 -82 195 -4 0 -27
-15 -51 -32 -65 -50 -188 -103 -332 -144 -161 -46 -221 -71 -273 -119 -67 -60
-111 -182 -112 -307 l0 -28 707 0 706 0 53 -59 c62 -69 128 -113 207 -140 236
-81 499 25 609 246 142 285 -3 615 -311 707 -59 17 -191 20 -255 5z m291 -108
c85 -40 165 -118 206 -200 30 -62 32 -72 32 -176 0 -108 -1 -113 -37 -187 -45
-91 -103 -147 -196 -191 -63 -30 -74 -32 -177 -32 -99 0 -116 3 -168 27 -248
116 -321 432 -150 642 120 147 322 195 490 117z"/>
<path d="M1675 700 c-8 -16 -15 -31 -15 -35 0 -3 23 -5 51 -5 51 0 89 -13 89
-30 0 -6 -26 -10 -59 -10 -47 0 -60 -3 -64 -17 -2 -10 -8 -26 -12 -35 -6 -16
0 -18 66 -18 l74 -1 -24 -19 c-15 -13 -38 -20 -67 -20 -42 0 -44 -1 -44 -31 0
-24 16 -48 77 -115 l77 -84 70 0 71 0 -87 88 -88 87 45 18 c25 11 56 32 69 48
17 20 34 29 54 29 23 0 32 7 45 35 l17 35 -43 0 c-31 0 -45 5 -55 20 -11 19
-10 20 26 20 34 0 40 4 55 35 l17 35 -165 0 -164 0 -16 -30z" fill="#2196F3"/>
</g>
</svg>
