<?xml version="1.0" standalone="no"?>
<!DOCTYPE svg PUBLIC "-//W3C//DTD SVG 20010904//EN"
 "http://www.w3.org/TR/2001/REC-SVG-20010904/DTD/svg10.dtd">
<svg version="1.0" xmlns="http://www.w3.org/2000/svg"
 width="200.000000pt" height="200.000000pt" viewBox="0 0 200.000000 200.000000"
 preserveAspectRatio="xMidYMid meet">

<g transform="translate(0.000000,200.000000) scale(0.100000,-0.100000)"
fill="#2a2a2a" stroke="none">
<path d="M1152 1835 l-113 -135 -110 95 c-60 52 -116 95 -123 95 -8 0 -19 -7
-26 -15 -14 -16 0 -32 114 -133 l60 -52 -96 0 c-53 0 -108 -4 -122 -10 -23 -8
-26 -15 -26 -54 l0 -45 -248 -3 -249 -3 -41 -27 c-22 -15 -54 -49 -69 -75
l-28 -48 0 -540 0 -540 28 -48 c15 -26 47 -60 69 -75 41 -26 45 -27 215 -30
l173 -3 -46 -60 c-47 -61 -53 -92 -19 -97 15 -2 38 20 84 78 l64 80 361 0 361
-1 64 -80 c48 -60 69 -79 85 -77 34 5 29 31 -20 93 l-46 60 168 5 c183 5 203
11 256 67 59 61 58 55 58 626 0 569 1 559 -56 626 -15 18 -45 42 -68 54 -38
20 -58 22 -278 25 l-238 4 0 38 c0 21 -6 42 -13 48 -7 6 -47 12 -89 14 l-77 3
100 118 c100 117 115 149 74 155 -15 2 -49 -32 -133 -133z m78 -235 c0 -19 -7
-20 -230 -20 -223 0 -230 1 -230 20 0 19 7 20 230 20 223 0 230 -1 230 -20z
m558 -100 c18 -11 41 -34 52 -52 19 -32 20 -52 20 -558 0 -596 3 -573 -80
-617 l-43 -23 -736 0 -737 0 -44 22 c-33 17 -51 35 -67 68 -23 44 -23 46 -23
540 0 293 4 509 10 529 10 37 53 88 85 101 11 5 360 9 775 9 736 1 756 0 788
-19z"/>
<path d="M235 1418 c-3 -7 -4 -249 -3 -538 l3 -525 765 0 765 0 0 535 0 535
-763 3 c-605 2 -764 0 -767 -10z m1475 -528 l0 -480 -710 0 -710 0 0 480 0
480 710 0 710 0 0 -480z"/>
<path d="M893 1212 c-96 -34 -152 -84 -204 -182 -20 -38 -24 -59 -24 -140 0
-84 3 -102 28 -152 101 -205 383 -254 542 -94 78 78 100 132 100 241 0 76 -4
98 -27 147 -72 154 -260 235 -415 180z m215 -67 c101 -43 172 -150 172 -260 0
-49 -6 -75 -31 -123 -51 -103 -135 -156 -249 -156 -114 0 -198 53 -249 156
-80 160 3 346 177 394 53 15 128 10 180 -11z" fill="#2196F3"/>
<path d="M912 1102 c-9 -7 -12 -57 -10 -218 3 -204 4 -209 24 -212 26 -4 264
191 264 217 0 16 -228 213 -253 218 -7 2 -18 -1 -25 -5z m128 -149 c39 -32 70
-60 70 -64 0 -9 -132 -119 -142 -119 -4 0 -8 54 -8 120 0 66 2 120 5 120 3 0
37 -26 75 -57z" fill="#2196F3"/>
</g>
</svg>
