<?xml version="1.0" standalone="no"?>
<!DOCTYPE svg PUBLIC "-//W3C//DTD SVG 20010904//EN"
 "http://www.w3.org/TR/2001/REC-SVG-20010904/DTD/svg10.dtd">
<svg version="1.0" xmlns="http://www.w3.org/2000/svg"
 width="200.000000pt" height="200.000000pt" viewBox="0 0 200.000000 200.000000"
 preserveAspectRatio="xMidYMid meet">
<metadata>
Created by potrace 1.16, written by Peter Selinger 2001-2019
</metadata>
<g transform="translate(0.000000,200.000000) scale(0.100000,-0.100000)"
fill="#000000" stroke="none">
<path d="M895 1710 c-109 -92 -224 -140 -384 -160 -97 -11 -143 -35 -170 -89
-43 -84 -35 -475 14 -669 70 -276 222 -456 493 -585 74 -36 96 -42 152 -42 58
0 76 5 170 52 187 92 316 213 398 371 86 165 114 318 115 617 1 205 1 211 -23
253 -34 60 -72 80 -171 92 -160 20 -275 68 -384 160 -52 44 -65 50 -105 50
-40 0 -53 -6 -105 -50z m158 -96 c90 -79 298 -164 401 -164 46 0 96 -17 112
-37 16 -22 19 -335 4 -453 -31 -235 -120 -413 -270 -538 -62 -51 -267 -162
-300 -162 -29 0 -216 97 -279 145 -116 88 -212 228 -255 375 -32 104 -46 240
-46 430 1 140 4 189 14 203 16 20 66 37 112 37 104 0 312 86 399 164 28 25 52
45 53 46 2 0 27 -20 55 -46z"/>
<path d="M766 1246 c-18 -20 -50 -81 -79 -152 l-48 -119 3 -145 3 -145 63 -3
c78 -4 92 6 92 64 l0 44 200 0 200 0 0 -38 c0 -62 15 -74 90 -70 l65 3 3 148
3 147 -45 115 c-52 132 -67 158 -102 173 -16 8 -94 12 -221 12 l-196 0 -31
-34z m465 -106 l36 -75 -260 -3 c-143 -1 -262 -1 -264 1 -5 6 48 120 65 140
14 16 34 17 201 15 l186 -3 36 -75z"/>
</g>
</svg>
