<?xml version="1.0" standalone="no"?>
<!DOCTYPE svg PUBLIC "-//W3C//DTD SVG 20010904//EN"
 "http://www.w3.org/TR/2001/REC-SVG-20010904/DTD/svg10.dtd">
<svg version="1.0" xmlns="http://www.w3.org/2000/svg"
 width="360.000000pt" height="360.000000pt" viewBox="0 0 360.000000 360.000000"
 preserveAspectRatio="xMidYMid meet">

<g transform="translate(0.000000,360.000000) scale(0.100000,-0.100000)"
fill="#2a2a2a" stroke="none">
<path d="M300 2555 l0 -115 80 0 80 0 0 -625 0 -625 -80 0 -80 0 0 -85 c0 -78
-2 -86 -24 -100 -14 -9 -29 -30 -35 -46 l-10 -29 1569 0 1569 0 -11 30 c-11
34 -53 60 -94 60 -21 0 -25 4 -20 17 4 9 10 116 13 238 5 209 7 221 27 237 30
24 11 50 -44 63 -42 9 -47 15 -127 138 -52 80 -95 135 -116 147 -30 19 -51 20
-310 20 -235 0 -284 -3 -313 -16 -23 -11 -64 -57 -130 -145 -71 -95 -103 -131
-123 -135 -14 -3 -37 -8 -51 -10 -52 -11 -67 -47 -27 -65 24 -11 24 -13 30
-227 4 -120 9 -227 13 -240 l6 -22 -201 0 -201 0 0 28 c0 32 -74 112 -103 112
-16 0 -17 27 -17 369 l0 369 -26 31 -26 31 -110 0 c-108 0 -110 0 -139 -29
l-29 -29 0 -356 c0 -310 -2 -356 -15 -356 -13 0 -15 45 -15 345 l0 345 -310 0
-311 0 -24 25 c-25 24 -25 25 -25 220 0 195 0 196 25 220 l24 25 249 0 c316 0
292 17 292 -203 l0 -157 40 0 40 0 0 215 0 215 80 0 80 0 0 115 0 115 -535 0
-535 0 0 -115z m1150 -640 c31 -16 60 -61 60 -92 0 -34 -37 -81 -74 -93 -31
-10 -42 -9 -73 7 -75 36 -79 131 -9 174 38 23 58 24 96 4z m1541 -114 c24 -18
108 -206 97 -216 -3 -3 -187 -4 -411 -3 l-405 3 47 100 c26 55 54 105 62 112
21 17 51 19 330 21 239 3 257 2 280 -17z m-1441 -126 c7 -8 10 -22 6 -30 -4
-12 -30 -15 -151 -15 -121 0 -147 3 -151 15 -4 8 -1 22 6 30 10 12 40 15 145
15 105 0 135 -3 145 -15z m-477 -19 c13 -32 -18 -36 -244 -34 -224 3 -224 3
-227 26 l-3 22 234 0 c194 0 236 -2 240 -14z m1197 -294 c27 -33 25 -68 -5
-97 -42 -43 -104 -30 -124 25 -29 86 73 143 129 72z m910 6 c65 -70 -37 -172
-107 -106 -29 27 -31 80 -3 108 27 27 83 27 110 -2z m-210 -98 l0 -50 -310 0
-310 0 0 50 0 50 310 0 310 0 0 -50z m140 -154 c0 -35 3 -71 6 -80 6 -14 -38
-16 -451 -16 -413 0 -457 2 -451 16 3 9 6 45 6 80 l0 64 445 0 445 0 0 -64z" fill="#2a2a2a"/>
<path d="M2315 2319 c-209 -111 -459 -243 -555 -294 l-174 -93 3 -93 c1 -52 4
-95 6 -97 1 -2 99 48 216 111 118 63 378 201 579 307 201 106 375 202 388 213
22 20 29 66 16 102 -7 18 -55 45 -81 45 -10 0 -189 -91 -398 -201z m348 104
c-14 -38 -30 -81 -35 -96 -8 -23 -69 -67 -92 -67 -2 0 12 43 33 96 32 83 42
99 72 115 19 10 37 18 41 19 4 0 -4 -30 -19 -67z m-232 -130 c-16 -43 -32 -86
-36 -96 -8 -18 -85 -64 -85 -50 0 5 15 48 33 97 28 76 38 91 68 107 18 10 37
18 41 19 4 0 -5 -35 -21 -77z m-206 -60 c-4 -10 -18 -49 -32 -88 -14 -38 -30
-76 -36 -83 -13 -16 -67 -45 -73 -39 -2 2 10 43 27 91 27 72 38 92 68 112 42
28 56 30 46 7z m-260 -205 c-32 -84 -40 -97 -72 -112 -20 -9 -37 -15 -40 -13
-2 3 11 45 30 93 30 78 39 92 73 111 21 12 40 20 42 19 2 -2 -13 -46 -33 -98z
m-229 -120 c-32 -83 -40 -95 -76 -116 -22 -12 -40 -19 -40 -15 0 4 15 48 34
97 29 77 38 92 72 112 21 13 40 21 42 19 3 -2 -12 -46 -32 -97z" fill="#2196F3"/>
</g>
</svg>
