<?xml version="1.0" standalone="no"?>
<!DOCTYPE svg PUBLIC "-//W3C//DTD SVG 20010904//EN"
 "http://www.w3.org/TR/2001/REC-SVG-20010904/DTD/svg10.dtd">
<svg version="1.0" xmlns="http://www.w3.org/2000/svg"
 width="400.000000pt" height="400.000000pt" viewBox="0 0 400.000000 400.000000"
 preserveAspectRatio="xMidYMid meet">

<g transform="translate(0.000000,400.000000) scale(0.100000,-0.100000)"
fill="#000000" stroke="none">
<path d="M1034 3799 c-146 -25 -332 -106 -455 -199 -178 -134 -320 -346 -381
-570 l-23 -85 0 -920 0 -920 23 -85 c28 -101 93 -243 152 -331 55 -82 187
-213 268 -268 84 -57 207 -114 317 -148 l90 -28 945 0 945 0 90 28 c110 34
233 91 317 148 81 55 213 186 268 268 59 88 124 230 152 331 l23 85 0 920 0
920 -23 85 c-28 101 -93 243 -152 331 -55 82 -187 213 -268 268 -84 57 -207
114 -317 148 l-90 28 -915 1 c-503 1 -938 -2 -966 -7z m1771 -303 c158 -40
363 -165 458 -280 54 -66 121 -177 151 -251 56 -141 57 -151 54 -985 -4 -865
1 -805 -87 -985 -99 -200 -258 -344 -471 -428 -135 -52 -130 -52 -940 -52
-810 0 -805 0 -940 52 -213 84 -372 228 -471 428 -88 180 -83 120 -87 985 -3
834 -2 844 54 985 30 74 97 185 151 251 125 151 362 274 573 297 19 3 361 3
760 2 655 -1 732 -3 795 -19z"/>
<path d="M2865 3116 c-146 -67 -114 -292 45 -313 168 -23 258 191 123 294 -41
32 -122 41 -168 19z"/>
<path d="M1778 2974 c-327 -59 -614 -290 -746 -602 -178 -418 -48 -910 313
-1184 315 -239 715 -278 1071 -103 249 123 447 370 520 650 22 83 26 124 27
235 1 181 -26 306 -101 455 -202 406 -642 629 -1084 549z m350 -349 c219 -52
425 -258 477 -476 19 -83 19 -257 0 -334 -30 -119 -80 -202 -179 -300 -150
-149 -283 -201 -496 -193 -178 7 -294 56 -424 178 -140 132 -206 285 -206 481
0 193 57 327 199 470 92 92 187 149 293 175 74 17 259 17 336 -1z"/>
</g>
</svg>
