<?xml version="1.0" encoding="UTF-8"?>
<!DOCTYPE svg PUBLIC "-//W3C//DTD SVG 1.1//EN" "http://www.w3.org/Graphics/SVG/1.1/DTD/svg11.dtd">
<svg xmlns="http://www.w3.org/2000/svg" version="1.1" width="200px" height="200px" style="shape-rendering:geometricPrecision; text-rendering:geometricPrecision; image-rendering:optimizeQuality; fill-rule:evenodd; clip-rule:evenodd" xmlns:xlink="http://www.w3.org/1999/xlink">
<g><path style="opacity:0.904" fill="#000000" d="M 45.5,15.5 C 79.5016,15.3333 113.502,15.5 147.5,16C 148,16.5 148.5,17 149,17.5C 149.5,25.1594 149.666,32.8261 149.5,40.5C 153.013,39.8757 155.847,40.8757 158,43.5C 158.667,86.5 158.667,129.5 158,172.5C 157.5,173 157,173.5 156.5,174C 118.833,174.667 81.1667,174.667 43.5,174C 38.6667,171.833 35.1667,168.333 33,163.5C 32.3333,118.167 32.3333,72.8333 33,27.5C 35.1112,21.2195 39.2778,17.2195 45.5,15.5 Z M 49.5,24.5 C 79.8333,24.5 110.167,24.5 140.5,24.5C 140.5,29.8333 140.5,35.1667 140.5,40.5C 109.165,40.6666 77.8316,40.5 46.5,40C 39.3286,33.1913 40.3286,28.0247 49.5,24.5 Z M 41.5,48.5 C 77.1235,49.4869 112.79,49.8202 148.5,49.5C 148.5,88.1667 148.5,126.833 148.5,165.5C 114.498,165.667 80.4984,165.5 46.5,165C 44.2739,163.773 42.7739,161.939 42,159.5C 41.5,122.502 41.3333,85.5015 41.5,48.5 Z"/></g>
<g><path style="opacity:0.858" fill="#000000" d="M 59.5,69.5 C 68.6928,69.2148 72.1928,73.5481 70,82.5C 67.4586,87.0685 63.6253,88.5685 58.5,87C 53.8451,84.1034 52.3451,79.9367 54,74.5C 55.3516,72.251 57.1849,70.5844 59.5,69.5 Z"/></g>
<g><path style="opacity:0.821" fill="#000000" d="M 86.5,73.5 C 100.837,73.3334 115.171,73.5001 129.5,74C 134.384,76.5275 134.717,79.5275 130.5,83C 115.167,83.6667 99.8333,83.6667 84.5,83C 82.5561,80.8471 82.0561,78.3471 83,75.5C 84.3024,74.9152 85.469,74.2485 86.5,73.5 Z"/></g>
<g><path style="opacity:0.858" fill="#000000" d="M 59.5,94.5 C 68.6928,94.2148 72.1928,98.5481 70,107.5C 67.4586,112.069 63.6253,113.569 58.5,112C 53.8451,109.103 52.3451,104.937 54,99.5C 55.3516,97.251 57.1849,95.5844 59.5,94.5 Z"/></g>
<g><path style="opacity:0.821" fill="#000000" d="M 86.5,98.5 C 100.837,98.3334 115.171,98.5001 129.5,99C 134.384,101.527 134.717,104.527 130.5,108C 115.167,108.667 99.8333,108.667 84.5,108C 82.5561,105.847 82.0561,103.347 83,100.5C 84.3024,99.9152 85.469,99.2485 86.5,98.5 Z"/></g>
<g><path style="opacity:0.858" fill="#000000" d="M 59.5,119.5 C 68.6928,119.215 72.1928,123.548 70,132.5C 67.4586,137.069 63.6253,138.569 58.5,137C 53.8451,134.103 52.3451,129.937 54,124.5C 55.3516,122.251 57.1849,120.584 59.5,119.5 Z"/></g>
<g><path style="opacity:0.821" fill="#000000" d="M 86.5,123.5 C 100.837,123.333 115.171,123.5 129.5,124C 134.384,126.527 134.717,129.527 130.5,133C 115.167,133.667 99.8333,133.667 84.5,133C 82.5561,130.847 82.0561,128.347 83,125.5C 84.3024,124.915 85.469,124.249 86.5,123.5 Z"/></g>
</svg>
