<?xml version="1.0" standalone="no"?>
<!DOCTYPE svg PUBLIC "-//W3C//DTD SVG 20010904//EN"
 "http://www.w3.org/TR/2001/REC-SVG-20010904/DTD/svg10.dtd">
<svg version="1.0" xmlns="http://www.w3.org/2000/svg"
 width="200.000000pt" height="200.000000pt" viewBox="0 0 200.000000 200.000000"
 preserveAspectRatio="xMidYMid meet">
<metadata>
Created by potrace 1.16, written by Peter Selinger 2001-2019
</metadata>
<g transform="translate(0.000000,200.000000) scale(0.100000,-0.100000)"
fill="#000000" stroke="none">
<path d="M420 1818 c-30 -15 -53 -37 -67 -63 l-23 -40 0 -676 0 -676 23 -34
c12 -18 38 -44 56 -56 l34 -23 561 0 c424 0 565 3 574 12 9 9 12 168 12 654 0
707 3 674 -61 674 l-29 0 0 113 c0 75 -4 117 -12 125 -9 9 -138 12 -518 12
-505 0 -506 0 -550 -22z m990 -148 l0 -80 -468 0 c-457 0 -469 1 -490 20 -47
44 -31 114 29 131 13 4 228 7 477 8 l452 1 0 -80z m-439 -170 l519 0 0 -580 0
-580 -507 0 c-384 1 -512 4 -524 13 -38 29 -39 41 -39 607 0 499 2 552 16 546
9 -3 249 -6 535 -6z"/>
<path d="M585 1288 c-52 -28 -63 -101 -20 -143 53 -54 145 -16 145 59 0 48 -8
65 -41 81 -33 18 -57 18 -84 3z"/>
<path d="M853 1250 c-26 -10 -32 -57 -11 -78 9 -9 76 -12 239 -12 194 0 230 2
243 16 22 22 20 50 -6 68 -19 13 -58 16 -233 15 -115 0 -220 -4 -232 -9z"/>
<path d="M585 1038 c-52 -28 -63 -101 -20 -143 53 -54 145 -16 145 59 0 48 -8
65 -41 81 -33 18 -57 18 -84 3z"/>
<path d="M853 1000 c-26 -10 -32 -57 -11 -78 9 -9 76 -12 239 -12 194 0 230 2
243 16 22 22 20 50 -6 68 -19 13 -58 16 -233 15 -115 0 -220 -4 -232 -9z"/>
<path d="M585 788 c-52 -28 -63 -101 -20 -143 53 -54 145 -16 145 59 0 48 -8
65 -41 81 -33 18 -57 18 -84 3z"/>
<path d="M853 750 c-26 -10 -32 -57 -11 -78 9 -9 76 -12 239 -12 194 0 230 2
243 16 22 22 20 50 -6 68 -19 13 -58 16 -233 15 -115 0 -220 -4 -232 -9z"/>
</g>
</svg>
