<?xml version="1.0" standalone="no"?>
<!DOCTYPE svg PUBLIC "-//W3C//DTD SVG 20010904//EN"
 "http://www.w3.org/TR/2001/REC-SVG-20010904/DTD/svg10.dtd">
<svg version="1.0" xmlns="http://www.w3.org/2000/svg"
 width="200.000000pt" height="200.000000pt" viewBox="0 0 200.000000 200.000000"
 preserveAspectRatio="xMidYMid meet">
<metadata>
Created by potrace 1.16, written by Peter Selinger 2001-2019
</metadata>
<g transform="translate(0.000000,200.000000) scale(0.100000,-0.100000)"
fill="#2a2a2a" stroke="none">
<path d="M895 1710 c-109 -92 -224 -140 -384 -160 -97 -11 -143 -35 -170 -89
-43 -84 -35 -475 14 -669 70 -276 222 -456 493 -585 74 -36 96 -42 152 -42 58
0 76 5 170 52 187 92 316 213 398 371 86 165 114 318 115 617 1 205 1 211 -23
253 -34 60 -72 80 -171 92 -160 20 -275 68 -384 160 -52 44 -65 50 -105 50
-40 0 -53 -6 -105 -50z m158 -96 c90 -79 298 -164 401 -164 46 0 96 -17 112
-37 16 -22 19 -335 4 -453 -31 -235 -120 -413 -270 -538 -62 -51 -267 -162
-300 -162 -29 0 -216 97 -279 145 -116 88 -212 228 -255 375 -32 104 -46 240
-46 430 1 140 4 189 14 203 16 20 66 37 112 37 104 0 312 86 399 164 28 25 52
45 53 46 2 0 27 -20 55 -46z"/>
<path d="M765 1291 c-49 -30 -68 -58 -72 -108 -5 -60 20 -109 68 -135 l34 -18
-30 0 c-44 -1 -109 -33 -133 -68 -28 -39 -44 -114 -40 -193 l3 -64 65 -17 c36
-9 93 -17 126 -17 51 -1 62 -4 66 -19 6 -20 88 -42 154 -42 64 0 136 21 141
41 4 16 15 19 60 19 30 0 86 7 124 16 l71 16 -4 111 c-3 99 -6 116 -27 146
-27 37 -90 70 -136 71 l-30 0 34 18 c93 50 92 185 -1 242 -62 37 -142 16 -186
-50 -44 -66 -12 -169 63 -200 17 -7 15 -9 -12 -9 -17 -1 -38 -7 -45 -13 -7 -7
-33 -13 -58 -13 -25 0 -51 6 -58 13 -7 6 -28 12 -45 12 l-32 0 34 18 c66 36
90 125 51 190 -41 67 -124 91 -185 53z" fill="#2196F3"/>
</g>
</svg>
