<?xml version="1.0" standalone="no"?>
<!DOCTYPE svg PUBLIC "-//W3C//DTD SVG 20010904//EN"
 "http://www.w3.org/TR/2001/REC-SVG-20010904/DTD/svg10.dtd">
<svg version="1.0" xmlns="http://www.w3.org/2000/svg"
 width="225.000000pt" height="225.000000pt" viewBox="0 0 225.000000 225.000000"
 preserveAspectRatio="xMidYMid meet">

<g transform="translate(0.000000,225.000000) scale(0.100000,-0.100000)"
fill="#000000" stroke="none">
<path d="M327 2026 c-50 -18 -76 -42 -98 -91 -18 -38 -19 -84 -19 -810 0 -726
1 -772 19 -810 22 -48 44 -69 94 -90 32 -13 135 -15 804 -15 724 0 770 1 808
19 48 22 69 44 90 94 13 32 15 135 15 804 0 724 -1 770 -19 808 -22 49 -48 73
-98 91 -56 20 -1540 20 -1596 0z m1503 -901 l0 -705 -705 0 -705 0 0 705 0
705 705 0 705 0 0 -705z"/>
<path d="M696 1680 c-108 -33 -130 -190 -34 -250 48 -31 128 -24 168 15 77 74
57 190 -40 229 -45 18 -52 18 -94 6z"/>
<path d="M690 1287 c-54 -27 -60 -58 -60 -335 0 -271 5 -303 51 -336 42 -29
105 -17 141 28 16 19 18 51 18 298 0 194 -4 285 -12 303 -22 48 -87 68 -138
42z"/>
<path d="M1038 1284 c-15 -8 -32 -23 -38 -34 -6 -11 -10 -129 -10 -305 l0
-287 29 -29 c39 -38 97 -40 138 -5 l28 24 5 169 c4 135 9 175 23 201 53 99
198 94 249 -8 15 -29 18 -62 18 -183 0 -162 8 -194 55 -215 60 -27 116 -6 141
54 17 39 19 263 4 342 -39 209 -247 338 -445 275 -58 -19 -61 -19 -90 -1 -36
22 -70 22 -107 2z"/>
</g>
</svg>
