<?xml version="1.0" standalone="no"?>
<!DOCTYPE svg PUBLIC "-//W3C//DTD SVG 20010904//EN"
 "http://www.w3.org/TR/2001/REC-SVG-20010904/DTD/svg10.dtd">
<svg version="1.0" xmlns="http://www.w3.org/2000/svg"
 width="512.000000pt" height="512.000000pt" viewBox="0 0 512.000000 512.000000"
 preserveAspectRatio="xMidYMid meet">

<g transform="translate(0.000000,512.000000) scale(0.100000,-0.100000)"
fill="#2a2a2a" stroke="none">
<path d="M1446 4351 c-650 -265 -1105 -456 -1113 -466 -10 -15 -13 -78 -13
-287 l0 -269 25 -24 c22 -23 32 -25 120 -25 l95 0 0 -135 c0 -131 1 -137 25
-160 20 -21 34 -25 80 -25 l55 0 0 -880 0 -880 -55 0 c-46 0 -60 -4 -80 -25
-24 -23 -25 -29 -25 -160 l0 -135 -95 0 c-88 0 -98 -2 -120 -25 l-25 -24 0
-231 0 -231 25 -24 24 -25 2191 0 2191 0 24 25 25 24 0 231 0 231 -25 24 c-22
23 -32 25 -120 25 l-95 0 0 135 c0 131 -1 137 -25 160 -20 21 -34 25 -80 25
l-55 0 0 880 0 880 55 0 c46 0 60 4 80 25 24 23 25 29 25 160 l0 135 95 0 c88
0 98 2 120 25 l25 24 0 269 c0 243 -2 272 -17 290 -18 20 -2195 912 -2224 912
-8 -1 -509 -202 -1113 -449z m2156 -143 l1038 -423 0 -172 0 -173 -2080 0
-2080 0 0 173 0 172 1033 421 c567 232 1037 422 1042 423 6 1 477 -189 1047
-421z m-2242 -1008 l0 -80 -320 0 -320 0 0 80 0 80 320 0 320 0 0 -80z m720
-57 l-1 -138 -71 -45 c-95 -60 -233 -192 -297 -285 -69 -100 -126 -224 -158
-343 -23 -85 -26 -117 -26 -252 0 -135 3 -167 26 -252 30 -113 86 -238 148
-329 79 -117 243 -270 347 -323 l32 -17 0 -139 0 -140 -280 0 -280 0 0 135 c0
131 -1 137 -25 160 -20 21 -34 25 -80 25 l-55 0 0 880 0 880 55 0 c46 0 60 4
80 25 24 23 25 29 25 160 l0 135 280 0 280 0 0 -137z m800 57 l0 -80 -320 0
-320 0 0 80 0 80 320 0 320 0 0 -80z m720 -55 c0 -131 1 -137 25 -160 20 -21
34 -25 80 -25 l55 0 0 -880 0 -880 -55 0 c-46 0 -60 -4 -80 -25 -24 -23 -25
-29 -25 -160 l0 -135 -280 0 -280 0 0 140 0 139 33 17 c103 53 267 206 346
323 62 91 118 216 148 329 23 85 26 117 26 252 0 135 -3 167 -26 252 -32 119
-89 243 -158 343 -64 93 -202 225 -297 285 l-71 45 -1 138 0 137 280 0 280 0
0 -135z m800 55 l0 -80 -320 0 -320 0 0 80 0 80 320 0 320 0 0 -80z m-3200
-1120 l0 -880 -160 0 -160 0 0 880 0 880 160 0 160 0 0 -880z m1581 851 c307
-80 546 -317 631 -627 30 -112 31 -335 0 -445 -103 -378 -418 -633 -807 -656
-415 -23 -786 248 -897 656 -30 109 -30 333 0 442 91 332 357 581 689 644 103
19 282 13 384 -14z m1459 -851 l0 -880 -160 0 -160 0 0 880 0 880 160 0 160 0
0 -880z m-2880 -1120 l0 -80 -320 0 -320 0 0 80 0 80 320 0 320 0 0 -80z
m1520 0 l0 -80 -320 0 -320 0 0 80 0 80 320 0 320 0 0 -80z m1520 0 l0 -80
-320 0 -320 0 0 80 0 80 320 0 320 0 0 -80z m240 -360 l0 -120 -2080 0 -2080
0 0 120 0 120 2080 0 2080 0 0 -120z"/>
<path d="M2452 4385 c-196 -55 -319 -250 -285 -450 44 -256 299 -397 548 -304
72 27 169 118 204 192 53 111 51 252 -5 364 -38 73 -127 155 -201 183 -75 28
-190 35 -261 15z m236 -182 c28 -17 58 -48 77 -77 27 -44 30 -58 30 -126 0
-68 -3 -82 -30 -126 -19 -30 -49 -60 -79 -79 -44 -27 -58 -30 -126 -30 -68 0
-82 3 -126 30 -30 19 -60 49 -79 79 -26 44 -30 58 -30 125 0 65 4 83 28 123
48 83 124 121 225 114 47 -3 75 -11 110 -33z" fill="#2196F3"/>
<path d="M2105 2615 c-16 -15 -25 -36 -25 -55 0 -19 9 -40 25 -55 24 -25 26
-25 216 -25 215 0 250 -6 309 -58 35 -29 70 -78 70 -97 0 -3 -128 -5 -285 -5
l-286 0 -24 -25 c-16 -15 -25 -36 -25 -55 0 -19 9 -40 25 -55 l24 -25 286 0
c157 0 285 -2 285 -5 0 -19 -35 -68 -70 -97 -59 -51 -94 -58 -307 -58 -185 0
-190 -1 -211 -23 -27 -29 -29 -87 -4 -115 9 -11 144 -128 300 -261 247 -211
286 -241 316 -241 77 0 114 79 62 132 -14 13 -110 96 -215 184 l-189 159 99 6
c88 6 109 11 174 43 86 43 144 102 186 191 16 33 29 66 29 73 0 8 19 12 60 12
51 0 65 4 85 25 16 15 25 36 25 55 0 19 -9 40 -25 55 -20 21 -34 25 -84 25
l-59 0 -12 38 c-7 20 -23 56 -35 80 l-24 42 95 0 c87 0 97 2 119 25 16 15 25
36 25 55 0 19 -9 40 -25 55 l-24 25 -431 0 -431 0 -24 -25z" fill="#2196F3"/>
</g>
</svg>
