<?xml version="1.0" standalone="no"?>
<!DOCTYPE svg PUBLIC "-//W3C//DTD SVG 20010904//EN"
 "http://www.w3.org/TR/2001/REC-SVG-20010904/DTD/svg10.dtd">
<svg version="1.0" xmlns="http://www.w3.org/2000/svg"
 width="200.000000pt" height="200.000000pt" viewBox="0 0 200.000000 200.000000"
 preserveAspectRatio="xMidYMid meet">
<metadata>
Created by potrace 1.16, written by Peter Selinger 2001-2019
</metadata>
<g transform="translate(0.000000,200.000000) scale(0.100000,-0.100000)"
fill="#2a2a2a" stroke="none">
<path d="M895 1710 c-109 -92 -224 -140 -384 -160 -97 -11 -143 -35 -170 -89
-43 -84 -35 -475 14 -669 70 -276 222 -456 493 -585 74 -36 96 -42 152 -42 58
0 76 5 170 52 187 92 316 213 398 371 86 165 114 318 115 617 1 205 1 211 -23
253 -34 60 -72 80 -171 92 -160 20 -275 68 -384 160 -52 44 -65 50 -105 50
-40 0 -53 -6 -105 -50z m158 -96 c90 -79 298 -164 401 -164 46 0 96 -17 112
-37 16 -22 19 -335 4 -453 -31 -235 -120 -413 -270 -538 -62 -51 -267 -162
-300 -162 -29 0 -216 97 -279 145 -116 88 -212 228 -255 375 -32 104 -46 240
-46 430 1 140 4 189 14 203 16 20 66 37 112 37 104 0 312 86 399 164 28 25 52
45 53 46 2 0 27 -20 55 -46z"/>
<path d="M1102 1261 c-25 -16 -9 -46 26 -49 44 -4 43 -34 -2 -50 -23 -8 -45
-30 -70 -67 -26 -40 -47 -60 -76 -71 -22 -9 -51 -29 -64 -45 -24 -28 -24 -31
-10 -64 18 -44 18 -75 -1 -75 -8 0 -19 16 -25 39 -6 24 -24 52 -45 70 -32 27
-43 31 -97 31 -57 0 -63 -2 -99 -39 -37 -36 -39 -42 -39 -99 0 -54 4 -65 31
-97 62 -70 159 -68 222 5 l34 40 112 0 c81 0 113 3 115 13 3 6 10 32 18 57 8
27 19 45 28 45 9 0 14 -8 12 -20 -13 -91 -13 -101 8 -133 48 -78 172 -75 208
4 19 40 15 108 -8 137 -24 31 -81 51 -120 43 -18 -3 -32 0 -40 9 -10 12 -6 15
17 21 93 21 101 24 113 54 33 79 -45 206 -143 235 -57 17 -86 19 -105 6z
m-314 -351 c17 -11 32 -24 32 -29 0 -5 3 -16 6 -25 5 -13 -1 -16 -30 -16 -29
0 -39 5 -48 25 -16 35 -52 30 -56 -7 -5 -40 28 -68 79 -68 35 0 40 -2 30 -14
-17 -21 -63 -29 -94 -17 -15 6 -34 26 -44 45 -14 29 -14 39 -3 66 13 30 51 59
80 60 8 0 30 -9 48 -20z" fill="#2196F3"/>
<path d="M933 1205 c-33 -14 -73 -49 -73 -64 0 -5 23 -21 52 -35 51 -26 98
-34 98 -17 0 4 18 29 40 54 22 25 40 47 40 50 0 9 -63 27 -94 27 -17 -1 -45
-7 -63 -15z" fill="#2196F3"/>
<path d="M600 1132 c0 -69 54 -112 142 -112 24 0 60 -9 81 -20 l38 -20 39 32
c38 32 49 48 32 48 -4 0 -51 25 -104 55 -90 51 -101 55 -162 55 l-66 0 0 -38z" fill="#2196F3"/>
</g>
</svg>
