<?xml version="1.0" standalone="no"?>
<!DOCTYPE svg PUBLIC "-//W3C//DTD SVG 20010904//EN"
 "http://www.w3.org/TR/2001/REC-SVG-20010904/DTD/svg10.dtd">
<svg version="1.0" xmlns="http://www.w3.org/2000/svg"
 width="1920.000000pt" height="1920.000000pt" viewBox="0 0 1920.000000 1920.000000"
 preserveAspectRatio="xMidYMid meet">

<g transform="translate(0.000000,1920.000000) scale(0.100000,-0.100000)"
fill="#2a2a2a" stroke="none">
<path d="M9510 15944 c-32 -10 -158 -101 -430 -310 -212 -163 -457 -351 -545
-418 -88 -67 -279 -214 -425 -326 -247 -190 -1439 -1105 -1720 -1320 -69 -53
-417 -321 -775 -595 -357 -275 -706 -542 -775 -595 -69 -53 -291 -224 -495
-380 -203 -156 -473 -363 -600 -460 -432 -332 -860 -660 -1168 -897 -170 -130
-321 -253 -337 -273 -42 -53 -64 -129 -56 -197 22 -191 215 -301 392 -223 22
9 157 107 300 217 142 109 426 327 629 483 204 156 552 424 775 595 223 171
581 446 795 610 215 164 505 387 645 495 140 108 431 331 645 495 522 401
1135 871 1550 1190 187 143 477 366 645 495 305 234 591 453 877 673 84 64
157 117 163 117 6 0 79 -53 163 -117 286 -220 572 -439 877 -673 168 -129 458
-352 645 -495 816 -627 1086 -834 2045 -1570 1020 -782 1881 -1443 2150 -1650
80 -61 303 -232 495 -380 193 -147 406 -312 475 -365 168 -130 196 -144 290
-144 115 0 198 50 249 151 47 93 35 213 -30 294 -16 20 -169 144 -340 275
-171 132 -411 316 -533 409 -121 94 -374 288 -561 431 -187 143 -488 375 -670
514 -181 139 -404 310 -495 380 -91 70 -439 337 -775 595 -335 258 -974 748
-1420 1090 -445 342 -929 713 -1075 825 -146 112 -337 259 -425 326 -88 67
-333 255 -545 418 -403 310 -430 327 -524 325 -23 0 -61 -7 -86 -15z"/>
<path d="M4360 15429 c-58 -26 -105 -72 -138 -134 l-27 -50 0 -1060 0 -1060
24 -52 c45 -101 140 -162 253 -163 122 0 236 84 268 198 6 24 10 346 10 910
l0 872 310 0 309 0 3 -347 c3 -397 2 -391 94 -472 147 -129 377 -68 442 117
10 28 13 156 12 545 0 495 -1 510 -21 558 -24 56 -82 112 -143 140 -39 18 -76
19 -696 19 -637 0 -656 -1 -700 -21z"/>
<path d="M9308 12090 c-961 -93 -1808 -567 -2383 -1335 -696 -931 -855 -2174
-414 -3247 408 -992 1258 -1727 2294 -1982 290 -71 459 -91 795 -91 336 0 505
20 795 91 848 209 1575 738 2044 1489 162 260 316 620 390 910 122 485 139
965 50 1450 -223 1214 -1123 2221 -2307 2581 -186 56 -343 91 -547 119 -128
19 -585 28 -717 15z m680 -574 c602 -91 1137 -358 1564 -779 742 -734 1012
-1830 693 -2815 -307 -949 -1084 -1655 -2060 -1871 -197 -43 -320 -55 -580
-55 -260 -1 -345 7 -555 49 -823 165 -1536 705 -1917 1451 -211 414 -305 799
-306 1259 -1 230 13 372 54 571 201 975 924 1779 1871 2082 150 48 366 96 498
111 52 6 109 13 125 15 71 10 515 -3 613 -18z" fill="#2196F3"/>
<path d="M8592 10320 c-227 -31 -427 -175 -545 -390 -135 -249 -173 -604 -96
-909 46 -181 115 -308 229 -422 91 -89 219 -159 340 -185 107 -23 260 -15 365
19 274 89 454 316 532 669 27 125 25 457 -5 585 -89 390 -328 614 -678 636
-43 3 -108 2 -142 -3z m163 -429 c79 -36 129 -110 167 -249 19 -67 22 -104 21
-277 0 -220 -14 -301 -70 -414 -85 -168 -268 -184 -372 -31 -152 222 -126 767
43 930 65 62 136 76 211 41z" fill="#2196F3"/>
<path d="M10246 10308 c-7 -13 -80 -140 -161 -283 -82 -143 -204 -359 -273
-480 -69 -121 -171 -301 -227 -400 -786 -1382 -1095 -1928 -1095 -1936 0 -11
430 -12 445 -1 6 4 127 212 269 462 143 250 332 583 421 740 899 1579 1085
1908 1085 1915 0 3 -101 5 -225 5 -222 0 -225 0 -239 -22z" fill="#2196F3"/>
<path d="M10395 9135 c-228 -50 -401 -194 -515 -430 -176 -361 -147 -883 64
-1179 94 -132 227 -228 381 -275 63 -19 104 -24 190 -25 129 -1 227 23 340 82
85 45 207 158 265 246 237 364 225 1004 -25 1335 -125 164 -335 262 -557 260
-46 0 -110 -7 -143 -14z m212 -416 c69 -26 126 -109 164 -241 27 -92 37 -341
20 -471 -23 -174 -85 -299 -170 -344 -114 -60 -231 -4 -301 141 -41 87 -61
184 -67 321 -16 353 99 605 273 605 29 0 65 -5 81 -11z" fill="#2196F3"/>
<path d="M4390 9579 c-55 -25 -114 -80 -143 -134 l-22 -40 -3 -2965 c-2 -3358
-11 -3022 83 -3117 92 -91 -121 -84 2260 -81 l2100 3 53 29 c95 53 145 138
145 246 1 111 -60 207 -162 254 l-46 21 -1937 3 -1938 2 0 2778 c0 3101 6
2838 -72 2927 -80 91 -213 122 -318 74z"/>
<path d="M14585 9576 c-65 -30 -131 -104 -150 -169 -13 -44 -15 -392 -15
-2829 l0 -2778 -1937 -2 -1938 -3 -46 -21 c-144 -67 -205 -236 -136 -377 30
-60 65 -95 131 -130 l41 -22 2100 -3 c2381 -3 2168 -10 2260 81 94 95 85 -241
83 3117 l-3 2965 -22 40 c-29 54 -88 109 -143 134 -64 29 -159 28 -225 -3z"/>
</g>
</svg>
