<?xml version="1.0" standalone="no"?>
<!DOCTYPE svg PUBLIC "-//W3C//DTD SVG 20010904//EN"
 "http://www.w3.org/TR/2001/REC-SVG-20010904/DTD/svg10.dtd">
<svg version="1.0" xmlns="http://www.w3.org/2000/svg"
 width="320.000000pt" height="320.000000pt" viewBox="0 0 320.000000 320.000000"
 preserveAspectRatio="xMidYMid meet">

<g transform="translate(0.000000,320.000000) scale(0.100000,-0.100000)"
fill="#000000" stroke="none">
<path d="M1514 2941 c-53 -24 -101 -83 -120 -149 -31 -107 8 -198 116 -270
l62 -42 200 0 200 0 -7 38 c-12 66 -64 210 -97 269 -40 71 -97 129 -151 154
-55 24 -149 25 -203 0z m161 -101 c67 -32 134 -142 168 -274 18 -68 17 -68
-105 -30 -137 43 -216 91 -238 145 -17 40 -7 106 22 136 43 47 89 54 153 23z"/>
<path d="M2251 2934 c-64 -32 -121 -100 -168 -202 -31 -66 -73 -204 -73 -239
0 -10 39 -13 199 -13 l199 0 53 36 c109 73 150 156 129 259 -32 156 -194 231
-339 159z m193 -102 c25 -23 46 -74 46 -114 0 -50 -77 -117 -179 -157 -88 -34
-178 -58 -186 -49 -7 7 33 134 57 183 62 122 125 171 203 160 22 -3 48 -14 59
-23z"/>
<path d="M1134 2417 c-2 -7 -3 -85 -2 -172 l3 -160 855 0 855 0 0 170 0 170
-853 3 c-691 2 -854 0 -858 -11z"/>
<path d="M1280 1885 l0 -145 28 -5 c148 -31 259 -74 422 -165 65 -36 123 -61
153 -65 l47 -7 -2 263 -3 264 -322 3 -323 2 0 -145z"/>
<path d="M2050 1760 l0 -270 23 -4 c12 -2 56 -10 97 -16 41 -7 118 -23 170
-36 73 -19 121 -24 211 -24 65 0 124 3 133 6 14 5 16 42 16 310 l0 304 -325 0
-325 0 0 -270z"/>
<path d="M214 1726 c-42 -32 -98 -475 -110 -872 -5 -180 -4 -222 8 -237 12
-16 32 -19 173 -20 l160 -2 6 195 c4 107 14 265 23 350 16 144 25 217 57 456
7 50 10 98 6 107 -4 11 -26 17 -79 21 -163 12 -228 13 -244 2z"/>
<path d="M964 1646 c-88 -17 -169 -40 -257 -72 -50 -19 -68 -31 -72 -47 -5
-27 -54 -632 -57 -700 -1 -30 4 -52 11 -57 7 -4 45 -13 84 -19 86 -14 135 -38
504 -247 151 -86 323 -179 381 -207 156 -76 206 -76 614 3 112 21 238 43 282
49 101 14 138 35 328 183 174 137 261 218 283 264 16 35 20 101 6 123 -6 9 -2
25 11 47 26 44 17 84 -28 124 -30 26 -42 30 -92 30 -83 0 -164 -41 -261 -134
-125 -119 -211 -152 -461 -176 -188 -17 -277 0 -462 91 -56 27 -108 49 -115
49 -8 0 -49 10 -91 23 l-77 22 95 7 c52 3 138 9 190 13 93 7 184 -5 611 -82
96 -17 198 142 168 263 -28 112 -210 180 -584 218 -135 14 -156 19 -215 49
-355 185 -366 189 -580 193 -91 2 -171 -2 -216 -10z"/>
</g>
</svg>
