<?xml version="1.0" standalone="no"?>
<!DOCTYPE svg PUBLIC "-//W3C//DTD SVG 20010904//EN"
 "http://www.w3.org/TR/2001/REC-SVG-20010904/DTD/svg10.dtd">
<svg version="1.0" xmlns="http://www.w3.org/2000/svg"
 width="200.000000pt" height="200.000000pt" viewBox="0 0 200.000000 200.000000"
 preserveAspectRatio="xMidYMid meet">

<g transform="translate(0.000000,200.000000) scale(0.100000,-0.100000)"
fill="#2a2a2a" stroke="none">
<path d="M852 1508 c-7 -7 -12 -34 -12 -60 l0 -48 -308 0 c-226 0 -311 -3
-320 -12 -17 -17 -17 -879 0 -896 17 -17 1559 -17 1576 0 17 17 17 879 0 896
-9 9 -94 12 -320 12 l-308 0 0 48 c0 26 -5 53 -12 60 -8 8 -56 12 -148 12 -92
0 -140 -4 -148 -12z m248 -108 l0 -60 -100 0 -100 0 0 60 0 60 100 0 100 0 0
-60z m-260 -78 c0 -37 20 -42 160 -42 140 0 160 5 160 42 0 17 17 18 290 18
l290 0 0 -400 0 -400 -740 0 -740 0 0 400 0 400 290 0 c273 0 290 -1 290 -18z"/>
<path d="M603 1202 c-251 -90 -272 -432 -35 -549 81 -40 183 -40 264 0 107 53
163 144 163 267 0 85 -21 142 -74 203 -72 81 -213 117 -318 79z m171 -54 c55
-16 138 -99 154 -154 21 -71 12 -139 -25 -199 l-13 -20 -12 20 c-6 11 -28 36
-48 55 -34 33 -36 37 -23 60 21 39 10 98 -26 134 -27 26 -39 31 -81 31 -42 0
-54 -5 -81 -31 -36 -36 -47 -95 -26 -134 13 -23 11 -27 -23 -60 -20 -19 -42
-44 -48 -55 l-12 -20 -12 20 c-62 98 -48 206 37 290 70 71 145 90 239 63z
m-34 -148 c11 -11 20 -29 20 -40 0 -11 -9 -29 -20 -40 -11 -11 -29 -20 -40
-20 -11 0 -29 9 -40 20 -11 11 -20 29 -20 40 0 11 9 29 20 40 11 11 29 20 40
20 11 0 29 -9 40 -20z m28 -180 c28 -17 72 -73 72 -91 0 -12 -74 -42 -117 -47
-46 -5 -116 11 -147 33 -18 14 -18 15 1 47 42 72 125 98 191 58z"/>
<path d="M1164 1105 c-4 -8 -4 -22 0 -30 5 -13 35 -15 218 -13 l213 3 0 25 0
25 -213 3 c-183 2 -213 0 -218 -13z" fill="#2196F3"/>
<path d="M1164 925 c-4 -8 -4 -22 0 -30 5 -13 35 -15 218 -13 l213 3 0 25 0
25 -213 3 c-183 2 -213 0 -218 -13z" fill="#2196F3"/>
<path d="M1164 745 c-4 -8 -4 -22 0 -30 5 -13 35 -15 218 -13 l213 3 0 25 0
25 -213 3 c-183 2 -213 0 -218 -13z" fill="#2196F3"/>
</g>
</svg>
