<?xml version="1.0" standalone="no"?>
<!DOCTYPE svg PUBLIC "-//W3C//DTD SVG 20010904//EN"
 "http://www.w3.org/TR/2001/REC-SVG-20010904/DTD/svg10.dtd">
<svg version="1.0" xmlns="http://www.w3.org/2000/svg"
 width="512.000000pt" height="512.000000pt" viewBox="0 0 512.000000 512.000000"
 preserveAspectRatio="xMidYMid meet">

<g transform="translate(0.000000,512.000000) scale(0.100000,-0.100000)"
fill="#2a2a2a" stroke="none">
<path d="M3307 4704 c-334 -222 -508 -344 -516 -360 -16 -37 -14 -209 3 -243
18 -33 54 -51 106 -51 l40 0 0 -465 0 -465 -40 0 c-52 0 -88 -18 -106 -51 -27
-52 -8 -115 41 -137 38 -17 1972 -17 2010 0 29 13 55 55 55 88 0 59 -49 100
-120 100 l-40 0 0 465 0 465 40 0 c52 0 93 21 108 55 15 33 16 206 1 239 -17
37 -1010 696 -1049 696 -22 0 -157 -85 -533 -336z m961 -169 l427 -285 -855 0
-855 0 425 284 c234 157 426 285 428 285 1 1 194 -127 430 -284z m-1008 -955
l0 -460 -60 0 -60 0 0 460 0 460 60 0 60 0 0 -460z m960 0 l0 -460 -380 0
-380 0 0 460 0 460 380 0 380 0 0 -460z m320 0 l0 -460 -60 0 -60 0 0 460 0
460 60 0 60 0 0 -460z"/>
<path d="M1839 4602 c-26 -23 -32 -36 -32 -70 0 -57 18 -74 137 -134 l100 -50
-95 -32 c-464 -158 -857 -511 -1070 -961 -60 -127 -121 -307 -123 -363 -1 -38
4 -48 32 -73 22 -20 43 -29 66 -29 53 0 83 31 106 113 86 295 228 535 442 744
115 113 249 211 387 281 112 58 326 140 337 129 3 -2 -24 -61 -60 -130 -59
-113 -64 -128 -56 -158 13 -46 53 -79 95 -79 21 0 44 9 59 23 39 33 266 465
266 504 0 19 -9 42 -22 57 -34 36 -468 256 -506 256 -21 0 -43 -10 -63 -28z" fill="#2196F3"/>
<path d="M2671 2786 c-67 -37 -65 -143 4 -174 20 -9 303 -12 1166 -12 967 0
1144 2 1168 14 66 35 66 137 0 172 -40 20 -2301 21 -2338 0z" fill="#2196F3"/>
<path d="M747 2164 c-334 -222 -508 -344 -516 -360 -16 -37 -14 -209 3 -243
18 -33 54 -51 106 -51 l40 0 0 -465 0 -465 -40 0 c-52 0 -88 -18 -106 -51 -27
-52 -8 -115 41 -137 38 -17 1972 -17 2010 0 29 13 55 55 55 88 0 59 -49 100
-120 100 l-40 0 0 465 0 465 40 0 c52 0 93 21 108 55 15 33 16 206 1 239 -17
37 -1010 696 -1049 696 -22 0 -157 -85 -533 -336z m961 -169 l427 -285 -855 0
-855 0 425 284 c234 157 426 285 428 285 1 1 194 -127 430 -284z m-1008 -955
l0 -460 -60 0 -60 0 0 460 0 460 60 0 60 0 0 -460z m960 0 l0 -460 -380 0
-380 0 0 460 0 460 380 0 380 0 0 -460z m320 0 l0 -460 -60 0 -60 0 0 460 0
460 60 0 60 0 0 -460z"/>
<path d="M4207 2210 c-18 -15 -35 -52 -65 -147 -89 -279 -226 -499 -438 -703
-120 -115 -239 -200 -382 -273 -107 -55 -318 -135 -328 -124 -3 3 22 57 55
120 69 130 76 168 37 214 -20 23 -32 28 -70 28 -32 0 -51 -6 -65 -20 -11 -11
-74 -121 -140 -245 -124 -231 -136 -265 -106 -307 22 -31 475 -263 514 -263
20 0 42 10 63 29 27 24 33 36 32 70 -2 56 -21 74 -138 133 l-98 49 94 33 c563
196 997 651 1170 1226 33 109 30 138 -14 175 -36 31 -85 33 -121 5z" fill="#2196F3"/>
<path d="M111 246 c-67 -37 -65 -143 4 -174 20 -9 303 -12 1166 -12 967 0
1144 2 1168 14 66 35 66 137 0 172 -40 20 -2301 21 -2338 0z" fill="#2196F3"/>
</g>
</svg>
