<?xml version="1.0" standalone="no"?>
<!DOCTYPE svg PUBLIC "-//W3C//DTD SVG 20010904//EN"
 "http://www.w3.org/TR/2001/REC-SVG-20010904/DTD/svg10.dtd">
<svg version="1.0" xmlns="http://www.w3.org/2000/svg"
 width="512.000000pt" height="512.000000pt" viewBox="0 0 512.000000 512.000000"
 preserveAspectRatio="xMidYMid meet">

<g transform="translate(0.000000,512.000000) scale(0.100000,-0.100000)"
fill="#2a2a2a" stroke="none">
<path d="M2393 5025 c-198 -36 -364 -123 -509 -269 -174 -174 -268 -382 -281
-626 -21 -395 209 -768 571 -926 l66 -28 0 -188 0 -188 -449 0 -449 0 -12 30
c-17 42 -90 104 -138 118 -51 15 -253 15 -304 0 -48 -14 -121 -76 -138 -118
l-12 -30 -329 0 -329 0 0 -800 0 -800 329 0 329 0 12 -30 c17 -42 90 -104 138
-118 51 -15 253 -15 304 0 48 14 121 76 138 118 l12 30 169 0 169 0 0 -239 0
-238 -89 -5 c-160 -9 -279 -86 -347 -224 -31 -63 -37 -85 -42 -163 l-5 -91
-558 0 -559 0 0 -80 0 -80 2480 0 2480 0 0 80 0 80 -559 0 -558 0 -5 91 c-5
78 -11 100 -42 163 -68 138 -187 215 -347 224 l-89 5 0 238 0 239 169 0 169 0
12 -30 c17 -42 90 -104 138 -118 51 -15 253 -15 304 0 48 14 121 76 138 118
l12 30 329 0 329 0 0 800 0 800 -329 0 -329 0 -12 30 c-17 42 -90 104 -138
118 -51 15 -253 15 -304 0 -48 -14 -121 -76 -138 -118 l-12 -30 -449 0 -449 0
0 188 0 188 66 28 c479 209 701 771 495 1255 -98 230 -315 436 -548 521 -159
57 -342 74 -500 45z m357 -168 c209 -57 367 -171 481 -345 88 -134 124 -258
124 -432 0 -226 -75 -408 -231 -564 -310 -310 -812 -312 -1123 -5 -161 159
-236 340 -236 569 0 174 36 297 125 434 118 180 303 306 520 352 80 17 262 12
340 -9z m-30 -1894 l0 -163 -160 0 -160 0 0 163 0 162 160 0 160 0 0 -162z
m-1545 -188 l25 -24 0 -751 0 -751 -25 -24 c-23 -24 -31 -25 -135 -25 -104 0
-112 1 -135 25 l-25 24 0 751 0 751 25 24 c23 24 31 25 135 25 104 0 112 -1
135 -25z m3040 0 l25 -24 0 -751 0 -751 -25 -24 c-23 -24 -31 -25 -135 -25
-104 0 -112 1 -135 25 l-25 24 0 751 0 751 25 24 c23 24 31 25 135 25 104 0
112 -1 135 -25z m-3495 -775 l0 -640 -240 0 -240 0 0 640 0 640 240 0 240 0 0
-640z m3040 0 l0 -640 -165 0 c-133 0 -165 3 -165 14 0 7 -16 45 -35 83 -43
86 -103 144 -193 186 l-67 32 -575 0 -575 0 -67 -32 c-90 -42 -150 -100 -193
-186 -19 -38 -35 -76 -35 -83 0 -11 -32 -14 -165 -14 l-165 0 0 640 0 640
1200 0 1200 0 0 -640z m1120 0 l0 -640 -240 0 -240 0 0 640 0 640 240 0 240 0
0 -640z m-1766 -492 c55 -16 138 -99 154 -154 8 -28 12 -134 12 -338 l0 -296
-720 0 -720 0 0 296 c0 204 4 310 12 338 15 51 99 137 148 153 52 16 1059 17
1114 1z m480 -960 c55 -16 138 -99 154 -154 7 -23 12 -67 12 -98 l0 -56 -1200
0 -1200 0 0 56 c0 31 5 75 12 98 15 51 99 137 148 153 53 16 2018 17 2074 1z"/>
<path d="M2240 4664 c-1 -77 -23 -125 -109 -233 -158 -199 -203 -305 -205
-481 -1 -97 1 -110 28 -165 45 -92 171 -212 277 -264 123 -59 194 -75 329 -75
137 0 208 16 330 76 67 32 102 58 166 122 110 110 139 170 138 286 -1 110 -24
169 -115 297 -100 139 -112 165 -117 256 l-5 77 -61 0 c-75 0 -165 -22 -225
-56 -24 -13 -45 -24 -46 -24 -1 0 -14 24 -29 53 -56 115 -150 177 -278 185
l-78 5 0 -59z m210 -200 c23 -45 25 -61 29 -216 l3 -168 79 0 79 0 0 63 c0 82
14 130 52 173 25 29 93 74 111 74 2 0 14 -27 26 -59 12 -33 53 -103 92 -158
88 -122 109 -162 116 -222 19 -164 -233 -350 -475 -351 -135 0 -294 64 -389
156 -90 89 -109 159 -77 294 19 82 63 161 159 280 42 52 88 120 103 151 25 53
29 56 47 44 11 -7 31 -34 45 -61z" fill="#2196F3"/>
</g>
</svg>
