<?xml version="1.0" standalone="no"?>
<!DOCTYPE svg PUBLIC "-//W3C//DTD SVG 20010904//EN"
 "http://www.w3.org/TR/2001/REC-SVG-20010904/DTD/svg10.dtd">
<svg version="1.0" xmlns="http://www.w3.org/2000/svg"
 width="512.000000pt" height="512.000000pt" viewBox="0 0 512.000000 512.000000"
 preserveAspectRatio="xMidYMid meet">

<g transform="translate(0.000000,512.000000) scale(0.100000,-0.100000)"
fill="#2a2a2a" stroke="none">
<path d="M2469 4697 c-456 -492 -929 -1101 -1179 -1517 -148 -246 -264 -519
-307 -720 -27 -125 -24 -367 5 -517 63 -320 214 -603 443 -832 228 -227 498
-372 829 -442 142 -30 436 -33 580 -5 434 84 808 330 1049 691 121 181 208
395 247 610 25 138 26 378 1 495 -59 274 -213 593 -475 979 -227 336 -533 726
-836 1066 -115 129 -261 285 -267 285 -2 0 -43 -42 -90 -93z m214 -523 c562
-618 1034 -1365 1138 -1802 18 -72 20 -106 16 -197 -31 -588 -443 -1065 -1029
-1191 -61 -14 -127 -18 -248 -18 -121 0 -187 4 -248 18 -519 112 -898 491
-1008 1008 -12 55 -18 128 -18 218 0 143 14 209 81 380 102 260 354 682 611
1025 233 310 560 691 586 682 6 -2 60 -57 119 -123z"/>
<path d="M1604 2154 c37 -455 339 -787 781 -859 50 -8 109 -15 133 -15 l42 0
0 160 0 160 -39 0 c-78 0 -196 30 -277 70 -178 87 -297 275 -320 507 l-7 63
-160 0 -160 0 7 -86z" fill="#2196F3"/>
</g>
</svg>
