<?xml version="1.0" standalone="no"?>
<!DOCTYPE svg PUBLIC "-//W3C//DTD SVG 20010904//EN"
 "http://www.w3.org/TR/2001/REC-SVG-20010904/DTD/svg10.dtd">
<svg version="1.0" xmlns="http://www.w3.org/2000/svg"
 width="1600.000000pt" height="1600.000000pt" viewBox="0 0 1600.000000 1600.000000"
 preserveAspectRatio="xMidYMid meet">

<g transform="translate(0.000000,1600.000000) scale(0.100000,-0.100000)"
fill="#000000" stroke="none">
<path d="M1095 14783 c-188 -17 -398 -94 -564 -206 -260 -175 -449 -463 -512
-782 -12 -59 -14 -938 -14 -5685 l0 -5615 27 -105 c123 -483 476 -817 966
-917 83 -17 421 -18 6867 -18 7384 0 6853 -4 7045 57 426 136 730 478 827 928
17 82 18 307 18 5675 0 4488 -3 5603 -13 5657 -51 273 -178 510 -368 687 -165
154 -358 254 -594 308 -70 16 -503 17 -6860 18 -3732 1 -6803 0 -6825 -2z
m13453 -6660 l2 -5453 -6670 0 -6670 0 0 5448 c0 2997 3 5452 7 5455 3 4 3004
6 6667 5 l6661 -3 3 -5452z"/>
<path d="M6425 10856 c-127 -31 -252 -122 -308 -224 -61 -112 -57 53 -57
-2503 0 -1511 4 -2355 10 -2389 49 -257 340 -426 582 -337 35 13 968 549 2073
1192 1575 917 2020 1180 2058 1217 57 57 104 152 120 243 14 81 -1 182 -40
263 -33 70 -118 157 -198 201 -33 19 -926 538 -1985 1154 -1059 616 -1952
1133 -1985 1148 -60 29 -145 50 -194 48 -14 0 -48 -6 -76 -13z"/>
</g>
</svg>
