<?xml version="1.0" standalone="no"?>
<!DOCTYPE svg PUBLIC "-//W3C//DTD SVG 20010904//EN"
 "http://www.w3.org/TR/2001/REC-SVG-20010904/DTD/svg10.dtd">
<svg version="1.0" xmlns="http://www.w3.org/2000/svg"
 width="267.000000pt" height="267.000000pt" viewBox="0 0 267.000000 267.000000"
 preserveAspectRatio="xMidYMid meet">

<g transform="translate(0.000000,267.000000) scale(0.100000,-0.100000)"
fill="#2a2a2a" stroke="none">
<path d="M1685 2136 c-62 -20 -116 -51 -160 -91 -39 -36 -30 -34 38 10 89 57
248 73 348 35 68 -25 139 -96 170 -167 26 -60 49 -157 49 -205 0 -27 4 -38 15
-38 22 0 27 38 15 113 -29 182 -118 299 -260 341 -63 19 -159 20 -215 2z" fill="#2196F3"/>
<path d="M1674 2032 c-76 -27 -160 -81 -210 -134 -78 -83 -50 -95 41 -17 169
142 361 160 451 42 35 -46 52 -95 60 -177 6 -61 9 -66 30 -66 23 0 24 2 18 63
-13 140 -64 231 -158 279 -58 30 -165 34 -232 10z" fill="#2196F3"/>
<path d="M1690 1921 c-74 -29 -121 -64 -204 -152 -76 -80 -78 -84 -53 -87 21
-3 40 11 100 71 97 98 164 137 237 137 61 0 89 -16 114 -64 14 -28 12 -56 -5
-56 -4 0 -23 13 -41 28 -47 41 -65 45 -121 26 -34 -11 -69 -36 -116 -80 l-66
-63 33 -1 c25 0 40 8 58 29 32 38 122 83 151 75 22 -6 53 -58 53 -88 0 -9 8
-16 20 -16 16 0 20 7 20 30 0 19 6 33 16 37 19 7 34 -13 34 -44 0 -16 6 -23
20 -23 33 0 27 82 -10 156 -49 98 -132 128 -240 85z" fill="#2196F3"/>
<path d="M1374 1785 c-19 -29 -11 -44 14 -29 19 12 29 54 13 54 -6 0 -18 -11
-27 -25z"/>
<path d="M1703 1710 c-18 -11 -33 -22 -33 -25 0 -3 23 -5 51 -5 46 0 50 2 47
22 -4 30 -26 33 -65 8z" fill="#2196F3"/>
<path d="M1373 1555 c-16 -49 -18 -65 -8 -65 7 0 15 7 19 15 7 20 43 19 54 -1
5 -9 14 -15 20 -13 7 3 3 26 -10 67 -28 84 -47 83 -75 -3z m47 4 c0 -10 -4
-19 -10 -19 -5 0 -10 12 -10 26 0 14 4 23 10 19 6 -3 10 -15 10 -26z" fill="#2196F3"/>
<path d="M1537 1613 c-2 -4 -12 -32 -22 -61 -18 -55 -13 -80 9 -49 16 21 56
23 56 2 0 -8 7 -15 15 -15 19 0 18 12 -4 75 -16 45 -42 69 -54 48z m33 -60 c0
-7 -7 -13 -15 -13 -15 0 -21 31 -8 43 8 8 23 -12 23 -30z" fill="#2196F3"/>
<path d="M1650 1555 l0 -65 33 0 c48 0 77 24 77 65 0 41 -29 65 -77 65 l-33 0
0 -65z m74 29 c9 -8 16 -20 16 -25 0 -23 -22 -49 -40 -49 -17 0 -20 7 -20 45
0 49 15 59 44 29z" fill="#2196F3"/>
<path d="M1800 1556 c0 -51 3 -66 14 -66 9 0 16 12 18 28 2 19 9 28 26 30 19
3 22 -1 22 -27 0 -21 5 -31 15 -31 13 0 15 11 13 62 -2 38 -8 63 -15 66 -9 2
-13 -7 -13 -27 0 -26 -4 -31 -24 -31 -19 0 -25 6 -28 27 -2 14 -9 28 -15 31
-10 3 -13 -14 -13 -62z" fill="#2196F3"/>
<path d="M1974 1584 c-21 -50 -29 -94 -16 -94 5 0 12 7 16 15 7 20 43 19 54
-1 5 -9 14 -15 20 -13 6 3 3 27 -9 67 -23 72 -42 80 -65 26z m36 -25 c0 -10
-4 -19 -10 -19 -5 0 -10 12 -10 26 0 14 4 23 10 19 6 -3 10 -15 10 -26z" fill="#2196F3"/>
<path d="M2125 1608 c-39 -109 -41 -118 -20 -118 8 0 15 7 15 15 0 9 9 15 25
15 16 0 25 -6 25 -15 0 -8 7 -15 15 -15 19 0 18 12 -4 75 -17 49 -46 71 -56
43z m35 -55 c0 -7 -7 -13 -15 -13 -15 0 -21 31 -8 43 8 8 23 -12 23 -30z" fill="#2196F3"/>
<path d="M2240 1554 c0 -48 3 -65 13 -62 6 3 13 14 15 26 4 29 20 28 32 -3 5
-14 14 -25 20 -25 13 0 13 33 -1 47 -8 8 -8 13 0 17 18 11 13 44 -8 56 -11 5
-31 10 -45 10 -25 0 -26 -2 -26 -66z m60 26 c0 -11 -7 -20 -15 -20 -8 0 -15 9
-15 20 0 11 7 20 15 20 8 0 15 -9 15 -20z" fill="#2196F3"/>
<path d="M270 1140 l0 -410 100 0 100 0 0 145 0 145 48 0 c249 2 371 91 372
271 0 120 -67 209 -183 244 -37 11 -102 15 -244 15 l-193 0 0 -410z m369 236
c56 -29 68 -107 23 -157 -25 -28 -33 -31 -110 -36 l-82 -6 0 107 0 106 70 0
c42 0 82 -6 99 -14z"/>
<path d="M1135 1366 c-108 -51 -166 -145 -173 -283 -4 -68 0 -96 19 -155 39
-124 146 -208 264 -208 58 0 130 28 168 67 l37 36 0 -46 0 -47 100 0 100 0 0
325 0 325 -100 0 -100 0 0 -40 c0 -44 -9 -50 -27 -21 -6 10 -35 30 -64 45 -70
35 -153 36 -224 2z m218 -160 c103 -42 125 -190 42 -273 -29 -29 -39 -33 -89
-33 -48 0 -60 4 -90 31 -84 73 -68 226 28 270 49 22 67 23 109 5z"/>
<path d="M1733 1348 c159 -375 247 -588 247 -596 0 -6 -31 -80 -70 -165 -38
-85 -70 -157 -70 -161 0 -4 48 -5 106 -4 l106 3 202 475 202 475 -105 3 c-58
1 -107 -1 -110 -7 -3 -5 -37 -95 -76 -200 -39 -108 -72 -185 -77 -178 -4 6
-38 96 -75 199 l-68 188 -113 0 -112 0 13 -32z"/>
</g>
</svg>
