<?xml version="1.0" encoding="UTF-8"?>
<!DOCTYPE svg PUBLIC "-//W3C//DTD SVG 1.1//EN" "http://www.w3.org/Graphics/SVG/1.1/DTD/svg11.dtd">
<svg xmlns="http://www.w3.org/2000/svg" version="1.1" width="200px" height="200px" style="shape-rendering:geometricPrecision; text-rendering:geometricPrecision; image-rendering:optimizeQuality; fill-rule:evenodd; clip-rule:evenodd" xmlns:xlink="http://www.w3.org/1999/xlink">
<g><path style="opacity:0.889" fill="#000000" d="M 94.5,23.5 C 97.8499,23.335 101.183,23.5017 104.5,24C 119.236,38.1412 136.903,45.4745 157.5,46C 162.147,48.1058 165.314,51.6058 167,56.5C 169.069,76.5862 168.403,96.5862 165,116.5C 156.773,152.226 134.94,174.56 99.5,183.5C 64.0605,174.56 42.2271,152.226 34,116.5C 30.5378,96.5909 29.8712,76.5909 32,56.5C 33.4329,51.4018 36.5995,47.9018 41.5,46C 62.3506,45.5632 80.0173,38.0632 94.5,23.5 Z M 98.5,33.5 C 102.988,37.1436 107.655,40.6436 112.5,44C 125.673,50.9598 139.673,55.1265 154.5,56.5C 155.333,57.5 156.167,58.5 157,59.5C 158.339,78.9763 157.339,98.3096 154,117.5C 146.165,146.169 127.998,164.836 99.5,173.5C 69.3543,164.191 50.8543,144.191 44,113.5C 41.5685,95.5796 40.9018,77.5796 42,59.5C 42.8333,58.5 43.6667,57.5 44.5,56.5C 60.6519,55.1714 75.6519,50.338 89.5,42C 93,39.6658 96,36.8325 98.5,33.5 Z M 81.5,77.5 C 93.8378,77.3335 106.171,77.5001 118.5,78C 121.351,82.8743 124.018,87.8743 126.5,93C 108.824,93.833 91.1572,93.6663 73.5,92.5C 75.8026,87.218 78.4692,82.218 81.5,77.5 Z M 70.5,106.5 C 74.1817,106.335 77.8484,106.501 81.5,107C 82.8333,108 82.8333,109 81.5,110C 77.8333,110.667 74.1667,110.667 70.5,110C 69.3157,108.855 69.3157,107.688 70.5,106.5 Z M 117.5,106.5 C 121.182,106.335 124.848,106.501 128.5,107C 129.833,108 129.833,109 128.5,110C 124.833,110.667 121.167,110.667 117.5,110C 116.316,108.855 116.316,107.688 117.5,106.5 Z M 90.5,107.5 C 96.8421,107.334 103.175,107.5 109.5,108C 109.957,108.414 110.291,108.914 110.5,109.5C 103.5,110.833 96.5,110.833 89.5,109.5C 89.8627,108.817 90.1961,108.15 90.5,107.5 Z"/></g>
<g><path style="opacity:0.911" fill="#000000" d="M 79.5,71.5 C 92.8375,71.3334 106.171,71.5001 119.5,72C 121.081,72.7065 122.581,73.5399 124,74.5C 128.243,82.8877 131.91,91.5544 135,100.5C 135.667,110.5 135.667,120.5 135,130.5C 130.587,131.632 126.087,131.799 121.5,131C 119.737,127.757 119.071,124.257 119.5,120.5C 106.167,120.5 92.8333,120.5 79.5,120.5C 79.6646,123.518 79.498,126.518 79,129.5C 78.5,130 78,130.5 77.5,131C 73.1667,131.667 68.8333,131.667 64.5,131C 63.348,120.91 63.1814,110.744 64,100.5C 67,93.1667 70,85.8333 73,78.5C 74.6941,75.6424 76.8607,73.309 79.5,71.5 Z M 81.5,77.5 C 78.4692,82.218 75.8026,87.218 73.5,92.5C 91.1572,93.6663 108.824,93.833 126.5,93C 124.018,87.8743 121.351,82.8743 118.5,78C 106.171,77.5001 93.8378,77.3335 81.5,77.5 Z M 70.5,106.5 C 69.3157,107.688 69.3157,108.855 70.5,110C 74.1667,110.667 77.8333,110.667 81.5,110C 82.8333,109 82.8333,108 81.5,107C 77.8484,106.501 74.1817,106.335 70.5,106.5 Z M 117.5,106.5 C 116.316,107.688 116.316,108.855 117.5,110C 121.167,110.667 124.833,110.667 128.5,110C 129.833,109 129.833,108 128.5,107C 124.848,106.501 121.182,106.335 117.5,106.5 Z M 90.5,107.5 C 90.1961,108.15 89.8627,108.817 89.5,109.5C 96.5,110.833 103.5,110.833 110.5,109.5C 110.291,108.914 109.957,108.414 109.5,108C 103.175,107.5 96.8421,107.334 90.5,107.5 Z"/></g>
</svg>
