<?xml version="1.0" standalone="no"?>
<!DOCTYPE svg PUBLIC "-//W3C//DTD SVG 20010904//EN"
 "http://www.w3.org/TR/2001/REC-SVG-20010904/DTD/svg10.dtd">
<svg version="1.0" xmlns="http://www.w3.org/2000/svg"
 width="225.000000pt" height="225.000000pt" viewBox="0 0 225.000000 225.000000"
 preserveAspectRatio="xMidYMid meet">

<g transform="translate(0.000000,225.000000) scale(0.100000,-0.100000)"
fill="#000000" stroke="none">
<path d="M165 1751 c-66 -16 -117 -65 -135 -129 -14 -51 -14 -944 1 -995 5
-21 24 -53 41 -72 59 -68 26 -66 1079 -63 870 3 946 4 975 20 44 24 81 72 94
119 7 26 10 200 8 517 -3 506 -2 496 -52 550 -54 60 8 57 -1031 59 -522 0
-963 -2 -980 -6z m458 -272 c36 -10 37 -12 37 -54 0 -50 0 -50 -55 -30 -22 8
-69 14 -105 14 -159 1 -255 -102 -255 -275 0 -70 4 -88 30 -139 64 -125 206
-158 373 -89 8 4 12 -6 12 -36 0 -38 -3 -42 -37 -58 -27 -11 -68 -16 -144 -17
-98 0 -109 2 -164 30 -72 37 -128 106 -151 184 -22 75 -15 219 13 283 38 85
125 162 213 189 38 11 190 10 233 -2z m1377 2 c22 -6 25 -13 28 -58 l3 -52
-33 17 c-24 12 -58 17 -120 17 -82 0 -89 -2 -115 -27 -36 -36 -37 -87 -2 -124
13 -14 58 -43 99 -64 112 -57 159 -95 182 -147 47 -106 -11 -210 -136 -244
-52 -14 -180 -6 -229 14 -36 15 -37 18 -37 65 l0 49 52 -26 c44 -22 67 -26
135 -26 72 0 84 3 107 24 20 19 26 34 26 68 0 56 -18 74 -140 140 -109 58
-145 89 -166 138 -39 93 12 193 118 232 36 12 187 15 228 4z m-970 -271 c82
-191 117 -265 122 -252 5 9 57 130 117 267 l110 250 60 3 61 3 0 -341 0 -340
-45 0 -45 0 0 278 0 277 -76 -175 c-42 -96 -96 -220 -119 -275 -40 -92 -46
-100 -71 -100 -26 0 -32 12 -145 270 l-119 270 0 -272 0 -273 -45 0 -45 0 0
340 0 340 63 0 63 0 114 -270z"/>
</g>
</svg>
