<?xml version="1.0" standalone="no"?>
<!DOCTYPE svg PUBLIC "-//W3C//DTD SVG 20010904//EN"
 "http://www.w3.org/TR/2001/REC-SVG-20010904/DTD/svg10.dtd">
<svg version="1.0" xmlns="http://www.w3.org/2000/svg"
 width="200.000000pt" height="200.000000pt" viewBox="0 0 200.000000 200.000000"
 preserveAspectRatio="xMidYMid meet">

<g transform="translate(0.000000,200.000000) scale(0.100000,-0.100000)"
 fill="#2a2a2a" stroke="none">
<path d="M1150 1895 c-25 -30 0 -49 74 -57 123 -12 246 -89 316 -197 38 -59
58 -118 68 -196 6 -55 9 -60 32 -60 21 0 26 5 28 35 14 138 -99 330 -243 415
-99 59 -249 91 -275 60z" fill="#2196F3"/>
<path d="M1144 1766 c-11 -30 3 -43 54 -49 80 -9 147 -44 201 -103 49 -53 81
-123 81 -175 0 -42 10 -59 35 -59 31 0 38 24 25 91 -31 163 -169 292 -330 306
-49 5 -61 3 -66 -11z" fill="#2196F3"/>
<path d="M1150 1645 c-21 -25 0 -49 46 -56 86 -12 147 -73 162 -160 7 -38 11
-44 32 -44 20 0 26 6 28 27 5 41 -14 99 -47 144 -53 71 -190 126 -221 89z" fill="#2196F3"/>
<path d="M469 1538 c-88 -112 -129 -231 -129 -375 0 -156 49 -286 152 -398
l59 -64 -91 -180 c-102 -206 -108 -234 -59 -275 l31 -26 244 0 245 0 24 24
c45 46 43 66 -23 202 l-61 124 68 0 c79 0 198 28 268 64 58 29 152 101 160
123 4 10 -43 64 -148 169 l-153 154 48 99 c47 95 51 99 87 105 47 8 94 53 103
100 19 103 -101 184 -188 127 -36 -24 -55 -56 -56 -93 0 -25 -10 -33 -102 -79
l-101 -51 -151 151 c-83 83 -159 151 -168 151 -10 0 -36 -23 -59 -52z m618
-219 c9 -9 0 -34 -33 -102 l-46 -90 -56 56 c-31 31 -54 58 -52 60 7 6 164 86
171 87 3 0 10 -5 16 -11z m-429 -683 c26 -13 64 -29 85 -36 35 -11 42 -20 103
-142 36 -71 64 -140 62 -151 -3 -22 -7 -22 -218 -25 -229 -3 -260 0 -260 23 0
17 167 355 175 355 3 0 27 -11 53 -24z"/>
<path d="M283 153 c-18 -6 -16 -50 1 -56 8 -3 22 1 33 8 28 21 -1 62 -34 48z" fill="#2a2a2a"/>
<path d="M399 144 c-9 -11 -10 -20 -2 -32 9 -15 42 -17 289 -20 153 -1 289 0
300 3 29 6 37 31 18 50 -24 23 -585 23 -605 -1z" fill="#2a2a2a"/>
<path d="M1092 148 c-16 -16 -15 -33 4 -48 22 -19 54 12 38 37 -14 22 -27 26
-42 11z" fill="#2a2a2a"/>
<path d="M1203 153 c-17 -6 -16 -38 1 -52 9 -8 71 -11 201 -9 163 3 189 5 198
20 8 12 7 21 -2 32 -11 14 -41 16 -200 15 -102 0 -192 -3 -198 -6z" fill="#2a2a2a"/>
<path d="M1682 148 c-25 -25 0 -64 32 -52 21 8 21 50 0 58 -20 8 -18 8 -32 -6z" fill="#2a2a2a"/>
</g>
</svg>
