<?xml version="1.0" standalone="no"?>
<!DOCTYPE svg PUBLIC "-//W3C//DTD SVG 20010904//EN"
 "http://www.w3.org/TR/2001/REC-SVG-20010904/DTD/svg10.dtd">
<svg version="1.0" xmlns="http://www.w3.org/2000/svg"
 width="258.000000pt" height="195.000000pt" viewBox="0 0 258.000000 195.000000"
 preserveAspectRatio="xMidYMid meet">

<g transform="translate(0.000000,195.000000) scale(0.100000,-0.100000)"
fill="#2a2a2a" stroke="none">
<path d="M1630 1939 c-82 -14 -177 -65 -241 -128 -254 -254 -133 -685 218
-776 311 -81 618 200 565 518 -44 261 -282 431 -542 386z m240 -244 c0 -23 -4
-25 -46 -25 -33 0 -44 -3 -40 -12 3 -7 9 -21 12 -30 4 -13 17 -18 40 -18 31 0
34 -3 34 -30 0 -27 -3 -30 -32 -30 -27 0 -36 -6 -48 -32 -18 -38 -56 -68 -98
-77 l-31 -6 85 -97 c47 -54 82 -102 79 -108 -3 -5 -23 -10 -43 -10 -35 0 -44
7 -130 106 -86 99 -92 108 -92 150 l0 44 69 0 c49 0 72 4 81 15 11 13 2 15
-69 15 l-81 0 0 30 0 30 76 0 c67 0 75 2 64 15 -9 10 -32 15 -76 15 l-64 0 0
40 0 40 155 0 155 0 0 -25z" fill="#2196F3"/>
<path d="M0 655 l0 -465 260 0 260 0 0 465 0 465 -260 0 -260 0 0 -465z"/>
<path d="M632 659 l3 -390 200 -105 c256 -135 318 -157 450 -158 134 0 175 13
445 149 243 123 443 239 640 372 154 105 168 117 192 172 27 59 18 119 -25
168 -39 45 -82 63 -146 63 -43 0 -78 -14 -259 -104 l-210 -105 -31 -65 c-61
-127 -146 -171 -357 -186 -165 -12 -194 -3 -194 59 0 41 28 50 155 48 144 -2
211 15 272 68 50 43 63 87 39 134 -29 55 -63 65 -239 69 l-159 4 -76 46 c-107
63 -205 107 -292 131 -62 17 -104 21 -242 21 l-168 0 2 -391z"/>
</g>
</svg>
