<?xml version="1.0" standalone="no"?>
<!DOCTYPE svg PUBLIC "-//W3C//DTD SVG 20010904//EN"
 "http://www.w3.org/TR/2001/REC-SVG-20010904/DTD/svg10.dtd">
<svg version="1.0" xmlns="http://www.w3.org/2000/svg"
 width="219.000000pt" height="230.000000pt" viewBox="0 0 219.000000 230.000000"
 preserveAspectRatio="xMidYMid meet">

<g transform="translate(0.000000,230.000000) scale(0.100000,-0.100000)"
fill="#000000" stroke="none">
<path d="M345 2172 c-156 -54 -260 -174 -285 -329 -13 -76 -13 -1310 0 -1386
21 -132 109 -251 229 -310 l66 -32 740 0 740 0 66 32 c117 58 204 173 229 303
6 32 10 306 10 699 0 527 -3 659 -15 715 -27 127 -104 224 -223 284 l-76 37
-715 2 c-659 2 -720 1 -766 -15z m1397 -214 c66 -31 127 -90 159 -156 l24 -47
3 -584 c2 -496 0 -592 -12 -636 -30 -101 -110 -178 -218 -210 -49 -14 -124
-15 -625 -13 l-568 3 -68 33 c-49 24 -79 48 -107 84 -72 90 -71 83 -68 739 l3
584 24 47 c46 93 134 161 230 178 25 5 298 8 606 7 l560 -2 57 -27z"/>
<path d="M1137 1756 c-58 -21 -114 -64 -131 -101 -13 -26 -16 -71 -16 -219 l0
-186 -105 0 -105 0 0 -100 0 -100 105 0 105 0 0 -265 0 -265 105 0 105 0 0
266 0 265 77 -2 78 -2 26 101 25 102 -103 0 -103 0 0 131 0 131 29 29 c26 25
37 29 85 29 31 0 56 2 56 4 0 5 27 139 35 174 5 22 5 22 -112 22 -73 -1 -133
-6 -156 -14z"/>
</g>
</svg>
