<?xml version="1.0" standalone="no"?>
<!DOCTYPE svg PUBLIC "-//W3C//DTD SVG 20010904//EN"
 "http://www.w3.org/TR/2001/REC-SVG-20010904/DTD/svg10.dtd">
<svg version="1.0" xmlns="http://www.w3.org/2000/svg"
 width="256.000000pt" height="256.000000pt" viewBox="0 0 256.000000 256.000000"
 preserveAspectRatio="xMidYMid meet">

<g transform="translate(0.000000,256.000000) scale(0.100000,-0.100000)"
fill="#2a2a2a" stroke="none">
<path d="M833 2513 c-20 -7 -15 -51 6 -63 11 -5 36 -10 55 -10 l36 0 0 -174 0
-173 -82 -5 c-60 -3 -95 -11 -127 -27 -69 -36 -135 -104 -167 -174 l-29 -62 0
-670 0 -670 28 -60 c15 -33 50 -82 76 -110 43 -44 49 -56 53 -102 6 -69 43
-124 100 -152 43 -20 56 -21 499 -21 508 0 508 0 563 72 24 32 52 130 41 147
-2 4 16 24 40 44 28 24 56 61 77 104 l33 68 0 680 0 680 -26 56 c-35 74 -95
133 -172 170 -51 24 -75 29 -134 29 l-73 0 0 175 0 175 36 0 c44 0 74 15 74
38 0 41 -6 42 -460 41 -239 0 -441 -3 -447 -6z m717 -248 l0 -175 -115 0 -115
0 0 85 0 84 68 3 c62 3 67 5 70 27 2 13 -1 28 -6 33 -5 5 -65 10 -133 10 -201
1 -207 1 -214 -22 -11 -35 12 -50 76 -50 l59 0 0 -85 0 -85 -115 0 -115 0 0
175 0 175 270 0 270 0 0 -175z m200 -256 c92 -20 186 -114 197 -197 l6 -42
-673 0 -673 0 6 42 c11 79 98 170 184 194 63 17 877 19 953 3z m201 -406 c0
-88 0 -923 -1 -975 l0 -28 -675 0 -675 0 0 545 0 545 675 0 675 0 1 -87z m-1
-1093 c0 -64 -73 -155 -153 -191 l-52 -24 -465 0 -465 0 -52 24 c-79 35 -153
129 -153 192 0 18 21 19 670 19 667 0 670 0 670 -20z m-150 -298 c0 -26 -29
-68 -55 -80 -41 -19 -897 -17 -934 2 -26 14 -51 53 -51 79 0 9 122 12 520 12
420 0 520 -3 520 -13z"/>
<path d="M1179 1493 c-98 -119 -158 -208 -201 -299 -29 -60 -33 -79 -33 -149
0 -72 4 -86 34 -143 39 -71 78 -110 154 -149 46 -25 63 -28 147 -28 79 0 103
4 141 23 71 35 122 84 160 154 30 57 34 71 34 143 0 70 -4 89 -33 149 -43 91
-103 180 -201 299 -53 63 -88 97 -101 97 -13 0 -48 -34 -101 -97z m197 -117
c113 -148 164 -250 164 -325 0 -142 -112 -251 -260 -251 -193 0 -315 186 -236
357 50 107 217 338 239 330 7 -2 49 -52 93 -111z" fill="#2196F3"/>
</g>
</svg>
