<?xml version="1.0" standalone="no"?>
<!DOCTYPE svg PUBLIC "-//W3C//DTD SVG 20010904//EN"
 "http://www.w3.org/TR/2001/REC-SVG-20010904/DTD/svg10.dtd">
<svg version="1.0" xmlns="http://www.w3.org/2000/svg"
 width="200.000000pt" height="200.000000pt" viewBox="0 0 200.000000 200.000000"
 preserveAspectRatio="xMidYMid meet">
<metadata>
Created by potrace 1.16, written by Peter Selinger 2001-2019
</metadata>
<g transform="translate(0.000000,200.000000) scale(0.100000,-0.100000)"
fill="#2a2a2a" stroke="none">
<path d="M890 1900 c-167 -76 -448 -159 -660 -195 -52 -9 -99 -20 -103 -24 -4
-4 -7 -39 -5 -77 l3 -69 30 0 c29 0 30 2 33 46 l3 46 48 6 c147 17 414 93 633
179 l128 49 137 -54 c200 -80 556 -177 649 -177 l26 0 -4 -382 c-4 -356 -6
-389 -26 -463 -66 -239 -205 -406 -442 -533 -77 -42 -207 -90 -295 -111 -45
-11 -59 -9 -139 14 -374 108 -603 318 -687 630 -19 71 -23 115 -28 380 l-6
300 -30 0 -30 0 0 -310 c0 -289 2 -316 23 -392 44 -162 113 -281 230 -397 123
-121 265 -205 453 -267 131 -43 178 -46 274 -19 202 56 366 145 497 269 138
130 214 261 254 436 17 71 19 126 19 490 l0 409 -35 7 c-19 4 -93 19 -165 33
-167 33 -368 94 -520 158 -66 27 -133 52 -150 53 -19 2 -61 -10 -115 -35z"/>
<path d="M903 1560 c-384 -69 -584 -486 -400 -835 64 -121 200 -229 342 -271
88 -26 230 -24 320 4 129 40 259 133 253 181 -5 43 -41 40 -94 -9 -25 -23 -80
-58 -122 -78 -76 -37 -79 -37 -203 -37 l-126 0 -84 42 c-109 54 -184 130 -237
240 -37 77 -37 79 -37 204 l0 126 42 84 c54 109 130 184 240 237 77 37 79 37
204 37 l126 0 84 -42 c109 -54 184 -130 237 -240 37 -77 37 -79 37 -203 0
-115 -2 -129 -27 -184 -16 -32 -28 -64 -28 -72 0 -17 34 -36 53 -28 16 6 48
73 68 144 19 67 16 224 -5 295 -55 187 -203 335 -385 389 -69 20 -191 28 -258
16z"/>
<path d="M882 1308 c-7 -7 -12 -44 -12 -95 l0 -83 -83 0 c-51 0 -88 -5 -95
-12 -16 -16 -16 -220 0 -236 7 -7 44 -12 95 -12 l83 0 0 -83 c0 -51 5 -88 12
-95 16 -16 220 -16 236 0 7 7 12 44 12 95 l0 83 83 0 c51 0 88 5 95 12 16 16
16 220 0 236 -7 7 -44 12 -95 12 l-83 0 0 83 c0 51 -5 88 -12 95 -8 8 -49 12
-118 12 -69 0 -110 -4 -118 -12z m180 -150 l3 -93 93 -3 92 -3 0 -59 0 -59
-92 -3 -93 -3 -3 -87 -3 -88 -59 0 -59 0 -3 88 -3 87 -92 3 -93 3 0 59 0 59
93 3 92 3 3 93 3 92 59 0 59 0 3 -92z" fill="#2196F3"/>
</g>
</svg>
