<?xml version="1.0" standalone="no"?>
<!DOCTYPE svg PUBLIC "-//W3C//DTD SVG 20010904//EN"
 "http://www.w3.org/TR/2001/REC-SVG-20010904/DTD/svg10.dtd">
<svg version="1.0" xmlns="http://www.w3.org/2000/svg"
 width="360.000000pt" height="360.000000pt" viewBox="0 0 360.000000 360.000000"
 preserveAspectRatio="xMidYMid meet">

<g transform="translate(0.000000,360.000000) scale(0.100000,-0.100000)"
fill="#2a2a2a" stroke="none">
<path d="M1600 3586 c-230 -31 -403 -82 -592 -176 -528 -264 -895 -764 -985
-1342 -25 -166 -23 -406 6 -571 126 -721 669 -1293 1381 -1456 226 -51 530
-54 756 -7 235 49 476 154 674 293 123 86 345 309 432 433 141 200 250 453
298 696 28 137 38 410 20 551 -97 793 -703 1430 -1485 1563 -156 27 -369 33
-505 16z m345 -196 c707 -68 1270 -572 1427 -1277 19 -84 22 -129 22 -313 0
-184 -3 -229 -22 -316 -82 -376 -283 -705 -574 -937 -189 -151 -433 -266 -677
-318 -123 -26 -389 -36 -516 -20 -362 48 -663 199 -931 466 -142 141 -221 250
-304 415 -252 504 -215 1114 98 1585 327 493 900 771 1477 715z"/>
<path d="M1486 2555 c-163 -174 -296 -319 -296 -324 0 -10 57 -61 69 -61 7 0
477 499 513 545 11 14 23 25 28 25 4 0 93 -91 196 -202 104 -110 226 -240 271
-287 l82 -86 35 35 35 35 -42 45 c-23 25 -141 151 -261 280 -268 288 -290 310
-315 310 -12 0 -123 -110 -315 -315z" fill="#2196F3"/>
<path d="M1576 2455 l-216 -225 0 -325 c0 -310 1 -325 19 -335 11 -5 78 -10
150 -10 l131 0 0 194 c0 164 3 197 16 210 21 21 235 23 253 3 7 -9 12 -85 13
-208 l3 -194 125 -3 c69 -1 135 0 148 3 l22 5 0 331 0 331 -181 191 c-209 220
-245 257 -258 257 -4 0 -106 -101 -225 -225z" fill="#2196F3"/>
<path d="M926 1785 c-23 -24 -29 -75 -24 -209 11 -253 88 -369 378 -572 111
-77 150 -110 175 -149 39 -61 59 -79 108 -100 46 -19 71 -19 113 1 111 53 118
241 17 413 -70 119 -290 328 -363 345 -61 15 -70 -46 -22 -144 16 -33 27 -60
24 -60 -16 0 -115 66 -126 83 -8 12 -42 86 -76 165 -48 110 -73 154 -109 192
-49 53 -70 60 -95 35z" fill="#2196F3"/>
<path d="M2587 1749 c-48 -50 -59 -71 -147 -272 -41 -95 -44 -98 -102 -133
-33 -19 -62 -33 -64 -32 -2 2 10 30 26 62 52 103 32 164 -42 133 -54 -23 -182
-131 -253 -214 -137 -160 -190 -309 -155 -435 24 -84 102 -133 178 -110 43 13
114 79 132 122 9 21 53 57 149 122 180 123 288 229 336 329 47 99 69 217 63
336 -5 97 -23 143 -55 143 -9 0 -39 -23 -66 -51z" fill="#2196F3"/>
</g>
</svg>
