<?xml version="1.0" standalone="no"?>
<!DOCTYPE svg PUBLIC "-//W3C//DTD SVG 20010904//EN"
 "http://www.w3.org/TR/2001/REC-SVG-20010904/DTD/svg10.dtd">
<svg version="1.0" xmlns="http://www.w3.org/2000/svg"
 width="200.000000pt" height="200.000000pt" viewBox="0 0 200.000000 200.000000"
 preserveAspectRatio="xMidYMid meet">

<g transform="translate(0.000000,200.000000) scale(0.100000,-0.100000)"
fill="#2a2a2a" stroke="none">
<path d="M370 1780 c-23 -18 -25 -26 -30 -132 l-5 -113 -100 -3 c-64 -2 -102
-7 -107 -15 -4 -7 -8 -300 -8 -652 0 -486 3 -644 12 -653 17 -17 1719 -17
1736 0 9 9 12 167 12 652 0 353 -4 647 -8 653 -6 10 -120 13 -493 15 l-484 3
-5 108 c-5 104 -6 110 -33 133 -28 24 -30 24 -245 24 -198 0 -219 -2 -242 -20z
m440 -680 l0 -620 -195 0 -195 0 0 620 0 620 195 0 195 0 0 -620z m-470 -150
l0 -501 25 -24 24 -25 226 0 226 0 24 25 25 24 0 501 0 500 455 0 455 0 0
-585 0 -585 -800 0 -800 0 0 585 0 585 70 0 70 0 0 -500z"/>
<path d="M1066 1219 c-50 -40 -21 -119 44 -119 64 0 91 70 45 115 -30 30 -54
31 -89 4z" fill="#2196F3"/>
<path d="M1285 1215 c-30 -30 -31 -54 -4 -89 40 -50 119 -24 119 40 0 68 -68
97 -115 49z" fill="#2196F3"/>
<path d="M1510 1220 c-26 -26 -26 -81 -2 -103 29 -27 77 -22 102 10 52 66 -41
152 -100 93z" fill="#2196F3"/>
<path d="M1090 1023 c-51 -19 -68 -84 -30 -118 44 -40 120 -9 120 50 0 42 -52
82 -90 68z" fill="#2196F3"/>
<path d="M1302 1020 c-52 -21 -53 -98 -2 -125 75 -39 140 62 74 114 -29 23
-38 24 -72 11z" fill="#2196F3"/>
<path d="M1516 1009 c-44 -35 -30 -110 24 -120 81 -16 119 96 44 130 -33 15
-37 14 -68 -10z" fill="#2196F3"/>
<path d="M1060 790 c-29 -29 -26 -74 6 -99 35 -27 59 -26 89 4 46 45 19 115
-45 115 -17 0 -39 -9 -50 -20z" fill="#2196F3"/>
<path d="M1281 784 c-27 -35 -26 -59 4 -89 27 -28 45 -31 78 -14 30 16 37 28
37 65 0 63 -79 88 -119 38z" fill="#2196F3"/>
<path d="M1507 792 c-23 -25 -21 -78 3 -102 59 -59 152 27 100 93 -26 33 -78
37 -103 9z" fill="#2196F3"/>
<path d="M1285 575 c-30 -30 -31 -54 -4 -89 40 -50 119 -21 119 44 0 64 -70
91 -115 45z" fill="#2196F3"/>
</g>
</svg>
