<?xml version="1.0" standalone="no"?>
<!DOCTYPE svg PUBLIC "-//W3C//DTD SVG 20010904//EN"
 "http://www.w3.org/TR/2001/REC-SVG-20010904/DTD/svg10.dtd">
<svg version="1.0" xmlns="http://www.w3.org/2000/svg"
 width="400.000000pt" height="400.000000pt" viewBox="0 0 200.000000 200.000000"
 preserveAspectRatio="xMidYMid meet">

<g transform="translate(0.000000,200.000000) scale(0.100000,-0.100000)"
fill="#2a2a2a" stroke="none">
<path d="M796 1625 c-7 -20 17 -60 83 -135 34 -39 40 -43 55 -31 23 19 20 31
-14 72 l-29 36 108 0 109 0 -31 -44 c-28 -40 -30 -45 -15 -59 10 -11 21 -13
31 -8 27 15 118 144 115 162 -4 18 -24 20 -163 11 -38 -2 -109 0 -156 5 -78 7
-87 6 -93 -9z"/>
<path d="M940 1411 c-153 -50 -301 -272 -356 -534 -17 -82 -18 -211 -2 -274
17 -69 86 -136 163 -160 86 -26 423 -26 507 0 117 36 169 111 176 251 14 267
-141 601 -322 697 -43 23 -127 33 -166 20z m125 -65 c146 -61 289 -339 302
-588 7 -127 -9 -183 -60 -222 -60 -45 -99 -51 -312 -51 -195 0 -201 1 -256 26
-39 19 -63 38 -80 65 -22 36 -24 49 -23 159 1 143 28 246 101 388 97 187 217
269 328 223z"/>
<path d="M794 1115 c-15 -37 2 -45 96 -45 68 0 99 -4 123 -17 l32 -18 -125 -5
-125 -5 0 -25 0 -25 128 -3 c129 -3 137 -5 117 -41 -15 -29 -37 -35 -145 -41
-138 -7 -138 -12 12 -162 127 -129 143 -141 167 -132 31 12 14 40 -81 136
l-98 98 40 0 c91 0 155 41 170 109 6 27 10 30 53 33 43 3 47 5 47 28 0 23 -4
25 -50 28 -44 3 -64 13 -65 34 0 4 26 8 58 10 53 3 57 5 57 28 l0 25 -203 3
c-174 2 -203 0 -208 -13z" fill="#2196F3"/>
</g>
</svg>
