<?xml version="1.0" standalone="no"?>
<!DOCTYPE svg PUBLIC "-//W3C//DTD SVG 20010904//EN"
 "http://www.w3.org/TR/2001/REC-SVG-20010904/DTD/svg10.dtd">
<svg version="1.0" xmlns="http://www.w3.org/2000/svg"
 width="213.000000pt" height="236.000000pt" viewBox="0 0 213.000000 236.000000"
 preserveAspectRatio="xMidYMid meet">

<g transform="translate(0.000000,236.000000) scale(0.100000,-0.100000)"
fill="#000000" stroke="none">
<path d="M138 2350 c-39 -12 -79 -46 -105 -88 l-23 -37 0 -688 c0 -655 1 -690
19 -725 42 -82 91 -102 246 -102 l115 0 0 38 c0 22 7 61 15 88 8 27 15 50 15
52 0 1 -43 2 -95 2 -89 0 -98 2 -121 25 l-25 25 3 281 3 281 24 19 c22 18 51
19 856 19 805 0 834 -1 856 -19 l24 -19 3 -279 c3 -271 2 -280 -18 -306 -21
-26 -25 -27 -121 -27 -100 0 -100 0 -93 -22 14 -46 24 -94 24 -125 l0 -33 122
0 c112 0 125 2 164 25 26 15 54 43 69 69 l25 43 0 682 c0 551 -3 688 -14 714
-17 41 -66 88 -108 104 -39 14 -1815 17 -1860 3z m599 -405 c29 -126 52 -238
53 -248 0 -16 -9 -17 -87 -15 -83 3 -88 4 -91 26 -3 20 -9 22 -63 22 -54 0
-59 -2 -65 -25 -6 -24 -9 -25 -91 -25 l-85 0 5 26 c2 14 26 126 53 250 l49
224 135 -2 134 -3 53 -230z m423 165 l0 -70 -45 0 -45 0 0 -180 0 -180 -90 0
-90 0 0 180 0 180 -50 0 -50 0 0 70 0 70 185 0 185 0 0 -70z m346 -22 l18 -93
15 93 14 92 134 0 133 0 0 -250 0 -250 -85 0 -84 0 -3 133 -3 132 -12 -67 c-7
-38 -18 -97 -24 -133 l-11 -65 -73 0 c-84 0 -73 -17 -102 155 l-18 110 -3
-132 -3 -133 -89 0 -90 0 0 250 0 250 134 0 134 0 18 -92z"/>
<path d="M530 1968 c-6 -40 -13 -79 -15 -85 -3 -9 8 -13 34 -13 l38 0 -8 53
c-5 28 -12 67 -15 85 -8 52 -21 37 -34 -40z"/>
<path d="M607 1403 c-12 -11 -8 -118 5 -131 12 -12 143 -17 172 -6 12 5 16 21
16 75 l0 69 -93 0 c-52 0 -97 -3 -100 -7z"/>
<path d="M972 1338 l3 -73 83 -3 c101 -3 112 3 112 68 0 80 0 80 -107 80 l-94
0 3 -72z"/>
<path d="M1337 1404 c-4 -4 -7 -35 -7 -70 0 -73 1 -74 105 -74 89 0 97 8 93
87 l-3 58 -90 3 c-50 1 -94 0 -98 -4z"/>
<path d="M607 1113 c-12 -11 -8 -118 5 -131 12 -12 143 -17 172 -6 12 5 16 21
16 75 l0 69 -93 0 c-52 0 -97 -3 -100 -7z"/>
<path d="M972 1048 l3 -73 83 -3 c106 -4 114 2 110 82 l-3 61 -98 3 -98 3 3
-73z"/>
<path d="M1337 1114 c-4 -4 -7 -35 -7 -70 0 -73 1 -74 105 -74 89 0 97 8 93
87 l-3 58 -90 3 c-50 1 -94 0 -98 -4z"/>
<path d="M600 400 l0 -400 465 0 465 0 0 400 0 400 -55 0 -55 0 0 -277 0 -278
-41 -17 c-31 -13 -44 -26 -56 -58 l-16 -40 -244 0 c-233 0 -243 1 -243 19 0
29 -46 79 -80 86 l-30 7 0 279 0 279 -55 0 -55 0 0 -400z"/>
<path d="M870 758 c-71 -157 52 -325 224 -304 140 16 225 169 168 300 l-21 46
-176 0 -176 0 -19 -42z"/>
</g>
</svg>
