<?xml version="1.0" standalone="no"?>
<!DOCTYPE svg PUBLIC "-//W3C//DTD SVG 20010904//EN"
 "http://www.w3.org/TR/2001/REC-SVG-20010904/DTD/svg10.dtd">
<svg version="1.0" xmlns="http://www.w3.org/2000/svg"
 width="200.000000pt" height="200.000000pt" viewBox="0 0 200.000000 200.000000"
 preserveAspectRatio="xMidYMid meet">

<g transform="translate(0.000000,200.000000) scale(0.100000,-0.100000)"
fill="#2a2a2a" stroke="none">
<path d="M500 1977 c-86 -45 -80 25 -80 -977 0 -1002 -6 -932 80 -977 43 -23
44 -23 498 -23 437 0 457 1 496 20 23 11 50 33 61 48 20 27 20 43 20 932 0
889 0 905 -20 932 -11 15 -38 37 -61 48 -39 19 -59 20 -496 20 -454 0 -455 0
-498 -23z m960 -937 l0 -720 -460 0 -460 0 0 720 0 720 460 0 460 0 0 -720z
m-385 -825 c50 -49 15 -135 -55 -135 -41 0 -80 39 -80 80 0 41 39 80 80 80 19
0 40 -9 55 -25z" fill="#2a2a2a"/>
<path d="M939 1248 c-79 -133 -145 -245 -147 -250 -2 -4 40 -8 92 -8 95 0 96
0 91 -22 -12 -52 -62 -333 -60 -336 3 -3 295 494 295 502 0 3 -36 6 -80 6 -57
0 -80 4 -80 13 0 6 9 83 20 171 12 87 19 160 17 162 -2 2 -68 -105 -148 -238z" fill="#2196F3"/>
</g>
</svg>
