<?xml version="1.0" standalone="no"?>
<!DOCTYPE svg PUBLIC "-//W3C//DTD SVG 20010904//EN"
 "http://www.w3.org/TR/2001/REC-SVG-20010904/DTD/svg10.dtd">
<svg version="1.0" xmlns="http://www.w3.org/2000/svg"
 width="225.000000pt" height="225.000000pt" viewBox="0 0 225.000000 225.000000"
 preserveAspectRatio="xMidYMid meet">

<g transform="translate(0.000000,225.000000) scale(0.100000,-0.100000)"
fill="#000000" stroke="none">
<path d="M1902 2035 c-128 -35 -240 -66 -249 -70 -13 -4 -6 -17 38 -61 l54
-54 -296 -296 -296 -296 -122 123 -122 123 -410 -410 -409 -409 77 -77 78 -78
330 330 330 330 123 -122 122 -123 375 375 375 375 59 -59 c42 -41 62 -55 65
-45 3 8 32 118 66 244 34 127 64 238 66 248 3 10 0 17 -8 16 -7 -1 -118 -30
-246 -64z"  fill="#2196F3"/>
<path d="M1742 1327 l-122 -122 0 -533 0 -532 125 0 125 0 0 655 c0 360 -1
655 -3 655 -1 0 -57 -55 -125 -123z"/>
<path d="M1322 907 l-122 -122 0 -323 0 -322 125 0 125 0 0 445 c0 245 -1 445
-3 445 -1 0 -57 -55 -125 -123z"/>
<path d="M847 924 l-57 -56 0 -364 0 -364 120 0 120 0 0 363 0 363 -58 57
c-32 31 -60 57 -63 57 -2 0 -30 -25 -62 -56z"/>
<path d="M488 566 l-118 -121 0 -152 0 -153 120 0 120 0 0 275 c0 151 -1 274
-2 274 -2 -1 -56 -56 -120 -123z"/>
</g>
</svg>
