<?xml version="1.0" standalone="no"?>
<!DOCTYPE svg PUBLIC "-//W3C//DTD SVG 20010904//EN"
 "http://www.w3.org/TR/2001/REC-SVG-20010904/DTD/svg10.dtd">
<svg version="1.0" xmlns="http://www.w3.org/2000/svg"
 width="512.000000pt" height="512.000000pt" viewBox="0 0 512.000000 512.000000"
 preserveAspectRatio="xMidYMid meet">

<g transform="translate(0.000000,512.000000) scale(0.100000,-0.100000)"
fill="#2a2a2a" stroke="none">
<path d="M4265 5104 c-38 -8 -112 -36 -164 -60 -126 -61 -246 -178 -309 -301
-212 -412 6 -899 453 -1013 247 -63 506 15 685 207 211 226 248 566 93 833
-49 84 -170 205 -253 253 -145 84 -346 116 -505 81z m235 -214 c0 -48 2 -50
39 -69 53 -28 108 -95 126 -155 24 -78 26 -76 -72 -76 l-88 0 -15 33 c-41 88
-160 65 -160 -31 0 -55 33 -83 112 -94 34 -4 80 -19 104 -33 119 -70 166 -223
105 -342 -22 -44 -97 -117 -130 -128 -18 -5 -21 -14 -21 -61 l0 -54 -85 0 -85
0 0 54 c0 50 -2 54 -31 66 -72 30 -149 142 -149 217 0 22 3 23 84 23 l84 0 19
-37 c20 -42 55 -60 96 -49 56 14 84 76 56 128 -13 24 -67 48 -109 48 -44 0
-92 22 -140 67 -87 78 -114 197 -66 298 24 52 89 119 132 135 21 8 24 16 24
60 l0 50 85 0 85 0 0 -50z" fill="#2196F3"/>
<path d="M1272 4849 c-114 -15 -217 -94 -270 -207 -26 -55 -27 -64 -27 -227 0
-165 1 -172 28 -230 37 -78 104 -147 181 -181 85 -39 195 -40 278 -2 79 36
142 98 181 177 l32 66 0 165 c0 149 -3 171 -23 222 -61 151 -213 238 -380 217z"/>
<path d="M90 4390 c-167 -100 -76 -354 116 -325 49 7 105 49 130 96 34 67 6
175 -58 220 -46 33 -140 37 -188 9z"/>
<path d="M376 3949 c-21 -16 -64 -37 -95 -46 -31 -9 -57 -17 -58 -18 -2 -1
219 -536 490 -1191 l492 -1189 503 -3 502 -2 0 90 0 90 -429 0 c-334 0 -430 3
-434 13 -24 61 -930 2282 -931 2283 0 1 -18 -12 -40 -27z"/>
<path d="M1450 3812 c-45 -13 -213 -11 -272 3 l-28 7 0 -67 0 -67 -125 -208
c-69 -114 -125 -211 -125 -215 0 -4 129 -324 287 -711 l286 -704 366 2 366 3
3 308 2 307 -383 0 -384 0 -144 337 -144 337 0 91 c0 74 4 98 23 132 78 148
262 205 404 126 84 -47 114 -97 184 -306 l61 -182 77 -3 c92 -3 91 -18 11 159
-88 198 -192 357 -338 518 -56 61 -77 92 -79 115 l-3 32 -45 -14z"/>
<path d="M4770 3000 l0 -530 -90 0 -90 0 0 440 0 440 -90 0 -90 0 0 -440 0
-440 -85 0 -85 0 0 310 0 310 -90 0 -90 0 0 -310 0 -311 -87 3 -88 3 -3 173
-2 172 -85 0 -85 0 0 -175 0 -175 -90 0 -90 0 0 90 0 91 -87 -3 -88 -3 -3 -87
-3 -88 -84 0 -85 0 0 -85 0 -85 970 0 970 0 0 85 0 85 -90 0 -90 0 0 530 0
530 -85 0 -85 0 0 -530z" fill="#2196F3"/>
<path d="M1382 3337 c-37 -21 -56 -57 -55 -106 0 -36 26 -106 112 -306 62
-143 116 -263 120 -268 4 -4 287 -6 630 -5 l623 3 -34 50 c-19 28 -54 62 -82
80 l-49 30 -471 5 -471 5 -81 239 c-91 269 -102 286 -177 286 -23 -1 -52 -6
-65 -13z"/>
<path d="M2380 1441 l0 -1030 45 -5 c25 -3 65 -9 90 -12 l45 -5 0 1040 0 1041
-90 0 -90 0 0 -1029z"/>
<path d="M2740 1985 l0 -135 113 0 112 0 350 -570 350 -570 272 0 273 0 16 25
c13 20 15 31 6 49 -13 30 -36 37 -240 77 l-162 32 -367 571 c-201 314 -376
582 -387 595 -41 47 -91 61 -218 61 l-118 0 0 -135z"/>
<path d="M2740 1590 l0 -90 115 0 116 0 -12 23 c-7 12 -32 52 -56 90 l-43 67
-60 0 -60 0 0 -90z"/>
<path d="M1077 999 c-70 -177 -127 -322 -125 -324 2 -1 59 -16 126 -33 l124
-30 13 31 c7 18 63 171 125 342 62 171 115 316 117 323 4 9 -25 12 -123 12
l-129 0 -128 -321z"/>
<path d="M430 613 c-28 -10 -59 -46 -70 -79 -14 -40 6 -94 43 -119 74 -48 799
-220 1217 -289 582 -96 1017 -126 1843 -126 l539 0 29 29 c36 37 38 79 5 118
l-24 28 -579 6 c-575 6 -738 15 -1098 55 -549 61 -1108 173 -1640 329 -178 52
-229 61 -265 48z"/>
</g>
</svg>
