<?xml version="1.0" standalone="no"?>
<!DOCTYPE svg PUBLIC "-//W3C//DTD SVG 20010904//EN"
 "http://www.w3.org/TR/2001/REC-SVG-20010904/DTD/svg10.dtd">
<svg version="1.0" xmlns="http://www.w3.org/2000/svg"
 width="200.000000pt" height="200.000000pt" viewBox="0 0 200.000000 200.000000"
 preserveAspectRatio="xMidYMid meet">
<g transform="translate(0.000000,200.000000) scale(0.100000,-0.100000)"
fill="#2a2a2a" stroke="none">
<path d="M548 1875 c-60 -33 -58 0 -58 -865 0 -878 -3 -842 65 -874 28 -14 91
-16 454 -16 452 0 470 2 505 51 14 21 16 101 16 836 l0 813 -29 32 -29 33
-449 2 c-383 2 -452 0 -475 -12z m913 -64 c18 -22 19 -50 19 -807 0 -771 0
-784 -20 -804 -19 -19 -33 -20 -448 -20 -423 0 -429 0 -448 21 -18 20 -19 50
-22 783 -2 518 0 773 8 798 7 25 18 39 38 47 17 6 180 9 440 8 l414 -2 19 -24z"/>
<path d="M582 1063 l3 -718 428 -3 427 -2 0 720 0 720 -430 0 -430 0 2 -717z
m818 2 l0 -675 -385 0 -385 0 0 675 0 675 385 0 385 0 0 -675z"/>
<path d="M941 1223 c-79 -109 -144 -205 -145 -213 -1 -12 16 -16 87 -18 84 -3
87 -4 82 -25 -3 -12 -16 -70 -30 -129 -30 -128 -30 -128 -7 -128 17 1 290 366
300 402 4 16 -4 18 -82 18 -101 0 -96 -11 -61 140 28 119 30 150 12 150 -7 0
-77 -89 -156 -197z" fill="#2196F3"/>
<path d="M967 318 c-9 -7 -20 -27 -23 -45 -5 -26 -1 -37 19 -57 32 -31 56 -33
91 -5 69 54 -16 159 -87 107z"/>
</g>
</svg>
