<?xml version="1.0" standalone="no"?>
<!DOCTYPE svg PUBLIC "-//W3C//DTD SVG 20010904//EN"
 "http://www.w3.org/TR/2001/REC-SVG-20010904/DTD/svg10.dtd">
<svg version="1.0" xmlns="http://www.w3.org/2000/svg"
 width="256.000000pt" height="256.000000pt" viewBox="0 0 256.000000 256.000000"
 preserveAspectRatio="xMidYMid meet">

<g transform="translate(0.000000,256.000000) scale(0.100000,-0.100000)"
fill="#2a2a2a" stroke="none">
<path d="M678 2531 l-33 -29 -5 -119 -5 -118 -258 -5 -259 -5 -29 -33 -29 -32
-1 -1045 c-1 -575 -2 -1050 -3 -1057 0 -7 -12 -15 -26 -18 -28 -7 -38 -34 -20
-55 19 -22 2521 -22 2540 0 18 21 8 48 -20 55 -14 3 -26 11 -26 18 -1 7 -2
482 -3 1057 l-1 1045 -29 32 -29 33 -259 5 -258 5 -5 118 -5 119 -33 29 -32
29 -570 0 -570 0 -32 -29z m1147 -51 c25 -9 26 -13 23 -77 l-3 -68 -565 0
-565 0 -3 68 c-3 62 -1 68 20 77 32 12 1059 13 1093 0z m23 -1312 l-3 -1093
-70 0 -70 0 -5 290 c-5 313 -7 323 -60 350 -43 22 -677 22 -720 0 -53 -27 -55
-37 -60 -350 l-5 -290 -70 0 -70 0 -3 1093 -2 1092 570 0 570 0 -2 -1092z
m-1211 955 l1 -63 -254 0 -254 0 0 55 c0 48 3 57 23 65 12 5 126 8 252 7 l230
-2 2 -62z m1767 58 c24 -10 26 -15 26 -66 l0 -55 -254 0 -254 0 0 58 c0 31 2
60 4 64 7 11 448 10 478 -1z m-1769 -1156 l0 -950 -250 0 -250 0 -3 953 -2
952 252 -2 253 -3 0 -950z m1793 3 l-3 -953 -250 0 -250 0 -3 940 c-1 517 0
945 3 952 3 10 63 13 255 13 l250 0 -2 -952z m-1188 -664 l0 -295 -152 3 -153
3 -3 272 c-4 340 -18 313 173 313 l135 0 0 -296z m370 276 c20 -20 21 -30 18
-293 l-3 -272 -152 -3 -153 -3 0 295 0 296 135 0 c123 0 137 -2 155 -20z"/>
<path d="M1186 2169 c-115 -27 -246 -139 -286 -246 -46 -118 -35 -264 26 -369
81 -139 260 -223 417 -197 275 46 427 335 309 587 -81 173 -280 269 -466 225z
m218 -89 c76 -29 139 -88 178 -168 29 -59 33 -76 33 -147 0 -71 -4 -88 -33
-147 -40 -81 -102 -139 -181 -169 -75 -28 -193 -23 -266 12 -67 31 -131 97
-163 167 -35 76 -37 193 -5 264 42 93 113 161 201 193 57 21 172 19 236 -5z" fill="#2196F3"/>
<path d="M1120 1985 c-6 -8 -10 -22 -8 -32 3 -15 17 -19 81 -24 54 -3 82 -10
94 -22 16 -16 13 -17 -61 -17 -84 0 -116 -11 -116 -38 0 -34 21 -42 115 -42
l90 -1 -24 -19 c-18 -16 -38 -20 -90 -20 -68 0 -91 -10 -91 -40 0 -20 221
-240 241 -240 20 0 39 20 39 40 0 9 -33 49 -74 88 l-74 72 37 10 c37 10 93 59
104 93 4 10 17 17 31 17 28 0 49 29 40 54 -3 9 -20 20 -38 24 -43 11 -47 40
-5 44 39 4 59 29 40 52 -19 23 -312 24 -331 1z" fill="#2196F3"/>
<path d="M1252 1268 c-8 -8 -12 -57 -12 -157 l0 -144 -22 20 c-41 37 -65 45
-82 27 -9 -8 -16 -21 -16 -27 0 -17 142 -157 160 -157 18 0 160 140 160 157 0
14 -28 43 -40 43 -5 0 -25 -14 -45 -31 l-35 -31 0 144 c0 147 -5 168 -40 168
-9 0 -21 -5 -28 -12z" fill="#2196F3"/>
<path d="M228 1899 c-16 -9 -18 -27 -18 -139 0 -118 2 -130 19 -140 11 -5 82
-10 160 -10 114 0 142 3 155 16 13 12 16 40 16 139 0 113 -2 125 -19 135 -25
13 -290 13 -313 -1z m252 -139 l0 -70 -100 0 -100 0 0 70 0 70 100 0 100 0 0
-70z"/>
<path d="M222 1532 c-9 -7 -12 -42 -10 -143 l3 -134 159 -3 c108 -2 163 1 172
9 19 15 20 249 2 267 -14 14 -305 17 -326 4z m258 -137 l0 -75 -100 0 -100 0
0 70 0 69 98 4 c53 1 98 4 100 5 1 1 2 -32 2 -73z"/>
<path d="M217 1163 c-13 -12 -8 -258 5 -271 15 -15 291 -17 319 -2 17 10 19
22 19 133 0 82 -4 127 -12 135 -13 13 -319 18 -331 5z m263 -133 l0 -70 -100
0 -100 0 0 70 0 70 100 0 100 0 0 -70z"/>
<path d="M221 796 c-8 -9 -11 -56 -9 -142 l3 -129 164 -3 c125 -2 166 1 173
10 4 7 8 68 8 135 0 111 -2 123 -19 133 -31 16 -306 13 -320 -4z m259 -136 l0
-70 -100 0 -100 0 0 70 0 70 100 0 100 0 0 -70z"/>
<path d="M217 433 c-4 -3 -7 -66 -7 -139 0 -111 2 -133 16 -138 31 -12 309 -7
322 6 17 17 17 249 0 266 -13 13 -319 18 -331 5z m263 -137 l0 -75 -97 2 -98
2 -3 73 -3 72 101 0 100 0 0 -74z"/>
<path d="M2018 1899 c-16 -9 -18 -26 -18 -134 0 -99 3 -127 16 -139 13 -13 41
-16 155 -16 78 0 149 5 160 10 17 10 19 22 19 140 0 118 -2 130 -19 140 -25
13 -290 13 -313 -1z m262 -139 l0 -70 -100 0 -100 0 0 70 0 70 100 0 100 0 0
-70z"/>
<path d="M2012 1528 c-18 -18 -17 -252 2 -267 9 -8 64 -11 172 -9 l159 3 3
134 c2 101 -1 136 -10 143 -21 13 -312 10 -326 -4z m268 -139 l0 -69 -100 0
-100 0 0 73 0 72 100 -3 100 -3 0 -70z"/>
<path d="M2012 1158 c-8 -8 -12 -51 -12 -135 0 -111 2 -123 19 -133 31 -16
306 -13 320 4 8 9 11 56 9 142 l-3 129 -160 3 c-116 2 -164 -1 -173 -10z m268
-128 l0 -70 -100 0 -100 0 0 70 0 70 100 0 100 0 0 -70z"/>
<path d="M2018 799 c-16 -9 -18 -26 -18 -132 0 -67 4 -128 8 -135 7 -9 48 -12
173 -10 l164 3 3 129 c2 86 -1 133 -9 142 -9 11 -45 14 -158 14 -80 0 -154 -5
-163 -11z m262 -139 l0 -70 -100 0 -100 0 0 70 0 70 100 0 100 0 0 -70z"/>
<path d="M2012 428 c-17 -17 -17 -249 0 -266 14 -14 305 -17 326 -4 9 7 12 42
10 143 l-3 134 -160 3 c-116 2 -164 -1 -173 -10z m266 -130 l-3 -73 -97 -2
-98 -2 0 75 0 74 100 0 101 0 -3 -72z"/>
</g>
</svg>
