<?xml version="1.0" standalone="no"?>
<!DOCTYPE svg PUBLIC "-//W3C//DTD SVG 20010904//EN"
 "http://www.w3.org/TR/2001/REC-SVG-20010904/DTD/svg10.dtd">
<svg version="1.0" xmlns="http://www.w3.org/2000/svg"
 width="512.000000pt" height="512.000000pt" viewBox="0 0 512.000000 512.000000"
 preserveAspectRatio="xMidYMid meet">
<metadata>
Created by potrace 1.16, written by Peter Selinger 2001-2019
</metadata>
<g transform="translate(0.000000,512.000000) scale(0.100000,-0.100000)"
fill="#000000" stroke="none">
<path d="M1317 4469 c-150 -35 -291 -168 -338 -320 -18 -57 -19 -104 -19 -853
l0 -793 23 -33 c45 -68 57 -70 351 -77 l266 -6 0 -736 c0 -719 1 -737 21 -781
44 -98 123 -150 235 -158 97 -6 135 13 355 175 l176 131 169 -169 c185 -185
222 -209 324 -209 101 0 139 24 325 209 l170 170 175 -131 c96 -72 198 -141
225 -154 131 -62 295 -3 360 129 l25 53 -2 1614 -3 1615 -32 68 c-36 76 -116
166 -181 204 -23 14 -70 34 -103 44 -58 18 -112 19 -1272 18 -674 -1 -1229 -5
-1250 -10z m203 -342 c19 -12 43 -38 54 -57 21 -34 21 -50 24 -692 l3 -658
-161 0 -161 0 3 658 c3 642 3 658 24 692 30 51 78 80 134 80 32 0 58 -7 80
-23z m2247 3 c18 -10 40 -31 50 -47 17 -26 18 -100 21 -1511 2 -1197 0 -1483
-10 -1475 -92 74 -335 244 -363 253 -19 6 -64 12 -100 11 -102 -1 -138 -23
-323 -205 l-162 -159 -164 161 c-107 106 -178 169 -207 182 -54 24 -173 27
-225 5 -19 -8 -104 -65 -187 -128 -84 -62 -158 -116 -164 -121 -10 -6 -13 302
-13 1523 l0 1531 908 0 c881 0 908 -1 939 -20z"/>
<path d="M2322 3820 c-49 -30 -72 -75 -72 -141 0 -66 25 -111 80 -143 34 -20
48 -21 560 -21 l525 0 38 24 c97 60 102 207 9 276 -26 19 -45 20 -567 23 -525
2 -541 2 -573 -18z"/>
<path d="M2322 3340 c-49 -30 -72 -75 -72 -141 0 -66 25 -111 80 -143 34 -20
48 -21 560 -21 l525 0 38 24 c97 60 102 207 9 276 -26 19 -45 20 -567 23 -525
2 -541 2 -573 -18z"/>
<path d="M2322 2860 c-49 -30 -72 -75 -72 -141 0 -66 25 -111 80 -143 33 -20
51 -21 320 -21 282 0 285 0 323 24 97 60 102 207 9 276 -25 19 -45 20 -327 23
-286 2 -302 1 -333 -18z"/>
</g>
</svg>
