<?xml version="1.0" encoding="UTF-8"?>
<!DOCTYPE svg PUBLIC "-//W3C//DTD SVG 1.1//EN" "http://www.w3.org/Graphics/SVG/1.1/DTD/svg11.dtd">
<svg xmlns="http://www.w3.org/2000/svg" version="1.1" width="512px" height="512px" style="shape-rendering:geometricPrecision; text-rendering:geometricPrecision; image-rendering:optimizeQuality; fill-rule:evenodd; clip-rule:evenodd" xmlns:xlink="http://www.w3.org/1999/xlink">
<g><path style="opacity:0.985" fill="#000000" d="M 134.5,63.5 C 215.834,63.3333 297.167,63.5 378.5,64C 397.566,68.7328 409.733,80.5661 415,99.5C 415.667,206.5 415.667,313.5 415,420.5C 408.376,437.396 396.209,443.563 378.5,439C 364.111,429.943 350.277,420.11 337,409.5C 325.833,420.667 314.667,431.833 303.5,443C 292.833,449 282.167,449 271.5,443C 260.333,431.833 249.167,420.667 238,409.5C 224.723,420.11 210.889,429.943 196.5,439C 178.803,443.569 166.636,437.402 160,420.5C 159.5,371.168 159.333,321.834 159.5,272.5C 141.479,272.719 123.479,272.219 105.5,271C 101,269.167 97.8333,266 96,261.5C 95.3333,208.167 95.3333,154.833 96,101.5C 101.461,81.2046 114.294,68.5379 134.5,63.5 Z M 138.5,96.5 C 150.308,94.8174 157.141,99.8174 159,111.5C 159.5,154.165 159.667,196.832 159.5,239.5C 148.833,239.5 138.167,239.5 127.5,239.5C 127.333,196.832 127.5,154.165 128,111.5C 128.626,104.391 132.126,99.3906 138.5,96.5 Z M 191.5,96.5 C 252.168,96.3333 312.834,96.5 373.5,97C 379.338,99.167 382.504,103.334 383,109.5C 383.667,207.167 383.667,304.833 383,402.5C 372.5,394.667 362,386.833 351.5,379C 341.084,373.418 330.751,373.752 320.5,380C 309.349,390.318 298.349,400.818 287.5,411.5C 277.347,401.848 267.347,392.014 257.5,382C 248.425,375.382 238.425,373.715 227.5,377C 215.402,385.132 203.569,393.632 192,402.5C 191.5,300.501 191.333,198.501 191.5,96.5 Z"/></g>
<g><path style="opacity:0.961" fill="#000000" d="M 234.5,127.5 C 270.168,127.333 305.835,127.5 341.5,128C 350.399,131.963 353.899,138.797 352,148.5C 349.542,155.314 344.709,159.147 337.5,160C 304.5,160.667 271.5,160.667 238.5,160C 224.743,155.643 220.91,146.809 227,133.5C 229.114,130.879 231.614,128.879 234.5,127.5 Z"/></g>
<g><path style="opacity:0.961" fill="#000000" d="M 234.5,175.5 C 270.168,175.333 305.835,175.5 341.5,176C 350.399,179.963 353.899,186.797 352,196.5C 349.542,203.314 344.709,207.147 337.5,208C 304.5,208.667 271.5,208.667 238.5,208C 224.743,203.643 220.91,194.809 227,181.5C 229.114,178.879 231.614,176.879 234.5,175.5 Z"/></g>
<g><path style="opacity:0.956" fill="#000000" d="M 234.5,223.5 C 254.169,223.333 273.836,223.5 293.5,224C 302.399,227.963 305.899,234.797 304,244.5C 301.542,251.314 296.709,255.147 289.5,256C 271.114,256.947 252.781,256.613 234.5,255C 227.513,252.193 224.18,247.027 224.5,239.5C 224.302,231.885 227.635,226.551 234.5,223.5 Z"/></g>
</svg>
