<?xml version="1.0" standalone="no"?>
<!DOCTYPE svg PUBLIC "-//W3C//DTD SVG 20010904//EN"
 "http://www.w3.org/TR/2001/REC-SVG-20010904/DTD/svg10.dtd">
<svg version="1.0" xmlns="http://www.w3.org/2000/svg"
 width="512.000000pt" height="512.000000pt" viewBox="0 0 512.000000 512.000000"
 preserveAspectRatio="xMidYMid meet">

<g transform="translate(0.000000,512.000000) scale(0.100000,-0.100000)"
fill="#000000" stroke="none">
<path d="M1033 4774 c-346 -76 -623 -358 -689 -702 -21 -110 -21 -2914 0
-3024 67 -348 345 -629 697 -703 106 -22 2932 -22 3038 0 350 73 623 347 695
697 14 68 16 242 16 1518 0 1276 -2 1450 -16 1518 -72 350 -345 624 -695 697
-100 21 -2949 21 -3046 -1z m2812 -447 c240 -70 418 -250 482 -487 17 -60 18
-151 18 -1280 0 -1129 -1 -1220 -18 -1280 -65 -240 -247 -422 -487 -487 -60
-17 -151 -18 -1280 -18 -1356 0 -1266 -4 -1415 70 -175 88 -294 233 -352 430
-16 56 -18 145 -21 1235 -3 1241 -2 1273 43 1397 82 227 290 396 530 432 33 5
595 8 1250 7 1100 -1 1195 -3 1250 -19z"/>
<path d="M2951 3665 c-97 -22 -166 -60 -248 -138 -52 -49 -82 -89 -105 -136
-32 -64 -33 -68 -36 -225 l-4 -159 -101 7 c-292 20 -467 74 -642 201 -178 129
-252 212 -327 368 -42 87 -43 87 -60 65 -9 -13 -30 -61 -45 -108 -25 -77 -28
-98 -28 -225 1 -126 3 -147 27 -207 33 -87 80 -165 141 -234 l49 -54 -29 -11
c-42 -16 -134 -3 -221 32 -42 17 -83 34 -91 37 -22 9 -5 -63 32 -132 64 -120
258 -294 419 -376 l78 -39 -45 -6 c-41 -7 -229 9 -261 22 -19 7 -18 -1 6 -46
45 -89 242 -265 360 -320 34 -16 93 -35 131 -41 38 -7 69 -14 69 -16 0 -10
-156 -111 -230 -149 -158 -79 -277 -107 -448 -107 -130 0 -130 3 8 -67 173
-88 357 -135 585 -150 518 -34 975 148 1283 512 247 291 375 608 404 1002 l11
158 85 81 c75 72 172 185 172 200 0 3 -22 -3 -50 -14 -62 -25 -208 -62 -226
-58 -8 2 5 18 32 40 60 49 125 133 153 198 12 29 21 54 19 55 -2 2 -34 -12
-72 -31 -38 -19 -113 -48 -167 -65 l-99 -32 -43 40 c-126 116 -317 167 -486
128z"/>
</g>
</svg>
