<?xml version="1.0" standalone="no"?>
<!DOCTYPE svg PUBLIC "-//W3C//DTD SVG 20010904//EN"
 "http://www.w3.org/TR/2001/REC-SVG-20010904/DTD/svg10.dtd">
<svg version="1.0" xmlns="http://www.w3.org/2000/svg"
 width="256.000000pt" height="256.000000pt" viewBox="0 0 256.000000 256.000000"
 preserveAspectRatio="xMidYMid meet">

<g transform="translate(0.000000,256.000000) scale(0.100000,-0.100000)"
fill="#2a2a2a" stroke="none">
<path d="M1365 2480 l-30 -20 113 0 c61 0 112 2 112 5 0 2 -13 11 -30 20 -42
22 -128 19 -165 -5z"/>
<path d="M660 2382 c-32 -14 -58 -38 -79 -72 -21 -35 -21 -42 -21 -530 l1
-495 77 -62 77 -62 5 487 c5 484 5 487 27 518 44 62 58 64 401 64 304 0 310 0
342 -23 19 -12 43 -38 54 -57 21 -34 21 -48 21 -623 0 -323 2 -587 5 -587 3 0
39 28 80 63 l75 63 0 604 c0 592 0 606 -21 640 -11 19 -35 45 -54 57 l-33 23
-471 -1 c-259 0 -478 -3 -486 -7z"/>
<path d="M1760 2348 c0 -2 7 -25 15 -52 8 -27 15 -63 15 -81 0 -30 6 -35 138
-110 75 -43 150 -90 166 -104 38 -35 56 -80 56 -143 0 -51 -9 -68 -181 -366
-140 -243 -180 -319 -177 -342 l3 -29 104 84 103 84 166 287 c185 320 194 347
153 421 -27 46 -29 48 -316 213 -126 73 -233 134 -237 137 -5 2 -8 3 -8 1z"/>
<path d="M1079 2101 c-51 -52 -34 -128 35 -151 63 -20 116 21 116 91 0 29 -7
43 -31 63 -41 35 -83 34 -120 -3z"/>
<path d="M323 1757 c-89 -73 -162 -135 -162 -138 -1 -8 321 -269 331 -269 5 0
8 122 8 270 0 149 -3 270 -7 269 -5 0 -81 -60 -170 -132z"/>
<path d="M1052 1834 c-76 -20 -110 -40 -168 -100 -70 -71 -97 -142 -98 -249 0
-65 5 -90 26 -137 35 -75 104 -147 175 -184 52 -26 68 -29 153 -29 85 0 101 3
155 29 73 36 135 99 172 174 24 50 28 69 28 147 0 78 -4 98 -29 152 -47 103
-141 178 -254 202 -67 14 -94 13 -160 -5z m290 -211 c7 -80 4 -270 -4 -280
-16 -20 -28 -5 -28 33 l0 34 -50 0 c-87 0 -140 34 -140 89 0 12 -4 21 -9 21
-11 0 -99 -69 -125 -99 -22 -24 -46 -28 -46 -7 0 31 179 174 252 202 30 11 34
-24 5 -46 -30 -24 -41 -63 -27 -90 9 -17 21 -20 75 -20 l65 0 0 90 c0 73 3 90
15 90 8 0 16 -8 17 -17z"/>
<path d="M2227 1556 c-42 -73 -77 -137 -77 -140 0 -4 56 39 125 95 69 56 125
105 125 108 -1 6 -84 71 -91 71 -2 0 -39 -60 -82 -134z"/>
<path d="M142 903 c3 -729 -1 -684 81 -766 82 -82 5 -77 1055 -77 1023 0 962
-4 1043 60 23 19 51 56 69 93 l30 62 -2 636 -3 636 -456 -372 c-251 -204 -477
-382 -502 -394 -106 -51 -248 -51 -353 -1 -38 19 -342 261 -862 687 l-102 84
2 -648z"/>
<path d="M1079 1001 c-60 -60 -22 -150 64 -151 53 0 87 35 87 90 0 85 -90 121
-151 61z"/>
</g>
</svg>
